<svg xmlns="http://www.w3.org/2000/svg" viewBox="0 0 833.13 545.31"><title>home-image</title><g id="Layer_2" data-name="Layer 2"><g id="Layer_1-2" data-name="Layer 1"><path d="M831.81,329.18c14.69-128.25-96-244.32-209.21-291.77C539.47,2.56,449.53,24.46,369.45,56.31c-26.64,10.59-52.73,23.24-80,32.15-20.28,6.62-40.75,9.53-62,6.8-25.57-3.28-52.48-10.89-78.28-5.88-24.25,4.71-46.15,18.67-63,36.06C22.26,191.36-1.69,292.1,17.34,379.69q1.69,7.83,3.81,15.59c49.79,183.29,254.05,102.6,346.52,99.61s187,40.84,296.72,12.95C741.8,488.17,819.72,434.79,831.81,329.18Z" style="fill:#d9b162"/><path d="M831.81,329.18c14.69-128.25-96-244.32-209.21-291.77C539.47,2.56,449.53,24.46,369.45,56.31c-26.64,10.59-52.73,23.24-80,32.15-20.28,6.62-40.75,9.53-62,6.8-25.57-3.28-52.48-10.89-78.28-5.88-24.25,4.71-46.15,18.67-63,36.06C22.26,191.36-1.69,292.1,17.34,379.69q1.69,7.83,3.81,15.59c49.79,183.29,254.05,102.6,346.52,99.61s187,40.84,296.72,12.95C741.8,488.17,819.72,434.79,831.81,329.18Z" style="fill:#fff;opacity:0.8"/><line x1="31.54" y1="437.82" x2="817.06" y2="455.94" style="fill:none;stroke:#233239;stroke-linecap:round;stroke-linejoin:round"/><line x1="31.54" y1="468.07" x2="817.06" y2="486.19" style="fill:none;stroke:#233239;stroke-linecap:round;stroke-linejoin:round"/><line x1="31.54" y1="456.39" x2="817.06" y2="479.8" style="fill:none;stroke:#233239;stroke-linecap:round;stroke-linejoin:round"/><line x1="15.51" y1="494.8" x2="798.05" y2="524.4" style="fill:none;stroke:#233239;stroke-linecap:round;stroke-linejoin:round"/><polygon points="769.99 531.62 486.51 520.75 342.59 545.31 722.84 545.31 769.99 531.62" style="fill:#d9b162"/><polygon points="0 499.98 0 534.52 185.83 508.51 0 499.98" style="fill:#d9b162"/><path d="M495.48,14S486.74-.26,473.25.53,455,10.06,451,16.41s-5.55,2.38-15.87-.8S420.06,18,417.68,23.55s-1.59,1.59-11.11,0-9.77,4.09-15.88,7.15c-5,2.48-6,2.59-11.54,1.1-6.85-1.86-9.1-.31-10.68,2.87h161S526.43,22,519.29,18.79,502.62,22,495.48,14Z" style="fill:none;stroke:#000;stroke-miterlimit:10;opacity:0.30000000000000004"/><path d="M211.51,45.85s-4.86-8-12.37-7.51-10.16,5.3-12.37,8.83-3.09,1.33-8.84-.44-8.39,1.33-9.72,4.42-.88.88-6.18,0-5.44,2.28-8.84,4c-2.76,1.38-3.36,1.44-6.42.61-3.81-1-5.06-.17-6,1.59h89.62s-1.7-7.06-5.68-8.83S215.49,50.27,211.51,45.85Z" style="fill:none;stroke:#000;stroke-miterlimit:10;opacity:0.30000000000000004"/><path d="M766.48,73.93s-3.68-6-9.36-5.68-7.68,4-9.35,6.68-2.34,1-6.69-.34-6.35,1-7.35,3.35-.67.66-4.68,0-4.11,1.72-6.68,3c-2.09,1-2.54,1.1-4.86.47-2.88-.78-3.83-.13-4.5,1.2H780.8s-1.29-5.34-4.29-6.68S769.49,77.27,766.48,73.93Z" style="fill:none;stroke:#000;stroke-miterlimit:10;opacity:0.30000000000000004"/><path d="M520.63,50.46s-2.54-4.14-6.45-3.91-5.29,2.76-6.44,4.6-1.61.69-4.61-.23-4.37.69-5.06,2.3-.46.46-3.22,0-2.83,1.19-4.6,2.07a3.47,3.47,0,0,1-3.35.32c-2-.54-2.64-.09-3.1.83h46.69s-.89-3.68-3-4.6S522.7,52.76,520.63,50.46Z" style="fill:none;stroke:#000;stroke-miterlimit:10;opacity:0.30000000000000004"/><g style="opacity:0.30000000000000004"><polyline points="88.53 365.62 118.44 365.62 118.44 95.1 197.13 95.1 197.13 223.85 214.03 223.85 214.03 383.82 233.54 383.82 233.54 145.04 269.96 145.04 269.96 48.28 328.48 48.28 328.48 226.46 350.59 226.46 350.59 155.58 400.01 155.58 400.01 171.18 442.28 171.18 442.28 381.87 459.19 381.87 459.19 343.51 505.36 343.51 505.36 381.22 527.47 381.22 527.47 191.34 602.25 191.34 602.25 369.52 623.71 369.52 623.71 121.11 649.72 121.11 649.72 75.59 662.73 75.59 662.73 49.58 683.53 49.58 683.53 218 717.35 218 717.35 378.62 743.36 378.62" style="fill:none;stroke:#000;stroke-miterlimit:10"/><rect x="118.44" y="86.65" width="78.68" height="8.45" style="fill:none;stroke:#000;stroke-miterlimit:10"/><rect x="233.32" y="145.04" width="36.64" height="4.28" style="fill:none;stroke:#000;stroke-miterlimit:10"/><rect x="269.78" y="48.28" width="58.7" height="4.16" style="fill:none;stroke:#000;stroke-miterlimit:10"/><rect x="355.25" y="146.74" width="8.55" height="8.83" style="fill:none;stroke:#000;stroke-miterlimit:10"/><rect x="381.74" y="150.44" width="4.27" height="5.13" style="fill:none;stroke:#000;stroke-miterlimit:10"/><rect x="400.01" y="171.18" width="42.41" height="5.18" style="fill:none;stroke:#000;stroke-miterlimit:10"/><rect x="527.47" y="187.48" width="74.77" height="3.87" style="fill:none;stroke:#000;stroke-miterlimit:10"/><rect x="546.69" y="179.78" width="29.63" height="7.69" style="fill:none;stroke:#000;stroke-miterlimit:10"/><polyline points="570.05 180.07 570.05 172.95 591.7 172.95 591.7 187.19" style="fill:none;stroke:#000;stroke-miterlimit:10"/><polyline points="427.35 169.06 427.35 111.49 495.88 111.49 495.88 159.19 519.45 159.19 519.45 78.05 595.11 78.05 595.11 176.18 618.68 176.18" style="fill:none;stroke:#000;stroke-miterlimit:10"/><polyline points="378 140.55 378 76.95 331.4 76.95" style="fill:none;stroke:#000;stroke-miterlimit:10"/><polyline points="231.07 156.44 215.72 156.44 215.72 112.04 200.92 112.04" style="fill:none;stroke:#000;stroke-miterlimit:10"/><polyline points="115.94 144.38 103.33 144.38 103.33 317.08" style="fill:none;stroke:#000;stroke-miterlimit:10"/><polyline points="641.71 112.58 641.71 91.75 648.29 91.75" style="fill:none;stroke:#000;stroke-miterlimit:10"/><polyline points="686.12 92.3 709.69 92.3 709.69 179.47 749.72 179.47 749.72 280.35" style="fill:none;stroke:#000;stroke-miterlimit:10"/><rect x="274.39" y="60.5" width="5.88" height="11.51" style="fill:none;stroke:#000;stroke-miterlimit:10"/><rect x="284.98" y="60.5" width="5.88" height="11.51" style="fill:none;stroke:#000;stroke-miterlimit:10"/><rect x="295.57" y="60.5" width="5.88" height="11.51" style="fill:none;stroke:#000;stroke-miterlimit:10"/><rect x="306.16" y="60.5" width="5.88" height="11.51" style="fill:none;stroke:#000;stroke-miterlimit:10"/><rect x="316.75" y="60.5" width="5.88" height="11.51" style="fill:none;stroke:#000;stroke-miterlimit:10"/><rect x="274.39" y="79.96" width="5.88" height="11.51" style="fill:none;stroke:#000;stroke-miterlimit:10"/><rect x="284.98" y="79.96" width="5.88" height="11.51" style="fill:none;stroke:#000;stroke-miterlimit:10"/><rect x="295.57" y="79.96" width="5.88" height="11.51" style="fill:none;stroke:#000;stroke-miterlimit:10"/><rect x="306.16" y="79.96" width="5.88" height="11.51" style="fill:none;stroke:#000;stroke-miterlimit:10"/><rect x="316.75" y="79.96" width="5.88" height="11.51" style="fill:none;stroke:#000;stroke-miterlimit:10"/><rect x="274.39" y="99.43" width="5.88" height="11.51" style="fill:none;stroke:#000;stroke-miterlimit:10"/><rect x="284.98" y="99.43" width="5.88" height="11.51" style="fill:none;stroke:#000;stroke-miterlimit:10"/><rect x="295.57" y="99.43" width="5.88" height="11.51" style="fill:none;stroke:#000;stroke-miterlimit:10"/><rect x="306.16" y="99.43" width="5.88" height="11.51" style="fill:none;stroke:#000;stroke-miterlimit:10"/><rect x="316.75" y="99.43" width="5.88" height="11.51" style="fill:none;stroke:#000;stroke-miterlimit:10"/><rect x="274.39" y="118.89" width="5.88" height="11.51" style="fill:none;stroke:#000;stroke-miterlimit:10"/><rect x="284.98" y="118.89" width="5.88" height="11.51" style="fill:none;stroke:#000;stroke-miterlimit:10"/><rect x="295.57" y="118.89" width="5.88" height="11.51" style="fill:none;stroke:#000;stroke-miterlimit:10"/><rect x="306.16" y="118.89" width="5.88" height="11.51" style="fill:none;stroke:#000;stroke-miterlimit:10"/><rect x="316.75" y="118.89" width="5.88" height="11.51" style="fill:none;stroke:#000;stroke-miterlimit:10"/><rect x="274.39" y="138.35" width="5.88" height="11.51" style="fill:none;stroke:#000;stroke-miterlimit:10"/><rect x="284.98" y="138.35" width="5.88" height="11.51" style="fill:none;stroke:#000;stroke-miterlimit:10"/><rect x="295.57" y="138.35" width="5.88" height="11.51" style="fill:none;stroke:#000;stroke-miterlimit:10"/><rect x="306.16" y="138.35" width="5.88" height="11.51" style="fill:none;stroke:#000;stroke-miterlimit:10"/><rect x="316.75" y="138.35" width="5.88" height="11.51" style="fill:none;stroke:#000;stroke-miterlimit:10"/><rect x="274.39" y="157.82" width="5.88" height="11.51" style="fill:none;stroke:#000;stroke-miterlimit:10"/><rect x="284.98" y="157.82" width="5.88" height="11.51" style="fill:none;stroke:#000;stroke-miterlimit:10"/><rect x="295.57" y="157.82" width="5.88" height="11.51" style="fill:none;stroke:#000;stroke-miterlimit:10"/><rect x="306.16" y="157.82" width="5.88" height="11.51" style="fill:none;stroke:#000;stroke-miterlimit:10"/><rect x="316.75" y="157.82" width="5.88" height="11.51" style="fill:none;stroke:#000;stroke-miterlimit:10"/><rect x="238.28" y="157.82" width="5.88" height="11.51" style="fill:none;stroke:#000;stroke-miterlimit:10"/><rect x="248.87" y="157.82" width="5.88" height="11.51" style="fill:none;stroke:#000;stroke-miterlimit:10"/><rect x="259.46" y="157.82" width="5.88" height="11.51" style="fill:none;stroke:#000;stroke-miterlimit:10"/><rect x="238.28" y="176.73" width="5.88" height="11.51" style="fill:none;stroke:#000;stroke-miterlimit:10"/><rect x="248.87" y="176.73" width="5.88" height="11.51" style="fill:none;stroke:#000;stroke-miterlimit:10"/><rect x="259.46" y="176.73" width="5.88" height="11.51" style="fill:none;stroke:#000;stroke-miterlimit:10"/><rect x="238.28" y="195.64" width="5.88" height="11.51" style="fill:none;stroke:#000;stroke-miterlimit:10"/><rect x="248.87" y="195.64" width="5.88" height="11.51" style="fill:none;stroke:#000;stroke-miterlimit:10"/><rect x="259.46" y="195.64" width="5.88" height="11.51" style="fill:none;stroke:#000;stroke-miterlimit:10"/><rect x="238.28" y="214.56" width="5.88" height="11.51" style="fill:none;stroke:#000;stroke-miterlimit:10"/><rect x="248.87" y="214.56" width="5.88" height="11.51" style="fill:none;stroke:#000;stroke-miterlimit:10"/><rect x="259.46" y="214.56" width="5.88" height="11.51" style="fill:none;stroke:#000;stroke-miterlimit:10"/><rect x="238.28" y="233.47" width="5.88" height="11.51" style="fill:none;stroke:#000;stroke-miterlimit:10"/><rect x="248.87" y="233.47" width="5.88" height="11.51" style="fill:none;stroke:#000;stroke-miterlimit:10"/><rect x="259.46" y="233.47" width="5.88" height="11.51" style="fill:none;stroke:#000;stroke-miterlimit:10"/><rect x="238.28" y="252.39" width="5.88" height="11.51" style="fill:none;stroke:#000;stroke-miterlimit:10"/><rect x="248.87" y="252.39" width="5.88" height="11.51" style="fill:none;stroke:#000;stroke-miterlimit:10"/><rect x="259.46" y="252.39" width="5.88" height="11.51" style="fill:none;stroke:#000;stroke-miterlimit:10"/><rect x="238.28" y="271.3" width="5.88" height="11.51" style="fill:none;stroke:#000;stroke-miterlimit:10"/><rect x="248.87" y="271.3" width="5.88" height="11.51" style="fill:none;stroke:#000;stroke-miterlimit:10"/><rect x="259.46" y="271.3" width="5.88" height="11.51" style="fill:none;stroke:#000;stroke-miterlimit:10"/><rect x="238.28" y="290.22" width="5.88" height="11.51" style="fill:none;stroke:#000;stroke-miterlimit:10"/><rect x="248.87" y="290.22" width="5.88" height="11.51" style="fill:none;stroke:#000;stroke-miterlimit:10"/><rect x="259.46" y="290.22" width="5.88" height="11.51" style="fill:none;stroke:#000;stroke-miterlimit:10"/><rect x="238.28" y="309.13" width="5.88" height="11.51" style="fill:none;stroke:#000;stroke-miterlimit:10"/><rect x="248.87" y="309.13" width="5.88" height="11.51" style="fill:none;stroke:#000;stroke-miterlimit:10"/><rect x="259.46" y="309.13" width="5.88" height="11.51" style="fill:none;stroke:#000;stroke-miterlimit:10"/><rect x="238.28" y="328.05" width="5.88" height="11.51" style="fill:none;stroke:#000;stroke-miterlimit:10"/><rect x="248.87" y="328.05" width="5.88" height="11.51" style="fill:none;stroke:#000;stroke-miterlimit:10"/><rect x="259.46" y="328.05" width="5.88" height="11.51" style="fill:none;stroke:#000;stroke-miterlimit:10"/><rect x="238.28" y="346.96" width="5.88" height="11.51" style="fill:none;stroke:#000;stroke-miterlimit:10"/><rect x="248.87" y="346.96" width="5.88" height="11.51" style="fill:none;stroke:#000;stroke-miterlimit:10"/><rect x="259.46" y="346.96" width="5.88" height="11.51" style="fill:none;stroke:#000;stroke-miterlimit:10"/><rect x="332.71" y="235.67" width="5.88" height="11.51" style="fill:none;stroke:#000;stroke-miterlimit:10"/><rect x="343.3" y="235.67" width="5.88" height="11.51" style="fill:none;stroke:#000;stroke-miterlimit:10"/><rect x="332.71" y="254.58" width="5.88" height="11.51" style="fill:none;stroke:#000;stroke-miterlimit:10"/><rect x="343.3" y="254.58" width="5.88" height="11.51" style="fill:none;stroke:#000;stroke-miterlimit:10"/><rect x="332.71" y="273.5" width="5.88" height="11.51" style="fill:none;stroke:#000;stroke-miterlimit:10"/><rect x="343.3" y="273.5" width="5.88" height="11.51" style="fill:none;stroke:#000;stroke-miterlimit:10"/><rect x="332.71" y="292.41" width="5.88" height="11.51" style="fill:none;stroke:#000;stroke-miterlimit:10"/><rect x="343.3" y="292.41" width="5.88" height="11.51" style="fill:none;stroke:#000;stroke-miterlimit:10"/><rect x="332.71" y="311.32" width="5.88" height="11.51" style="fill:none;stroke:#000;stroke-miterlimit:10"/><rect x="343.3" y="311.32" width="5.88" height="11.51" style="fill:none;stroke:#000;stroke-miterlimit:10"/><rect x="332.71" y="330.24" width="5.88" height="11.51" style="fill:none;stroke:#000;stroke-miterlimit:10"/><rect x="343.3" y="330.24" width="5.88" height="11.51" style="fill:none;stroke:#000;stroke-miterlimit:10"/><rect x="332.71" y="349.15" width="5.88" height="11.51" style="fill:none;stroke:#000;stroke-miterlimit:10"/><rect x="343.3" y="349.15" width="5.88" height="11.51" style="fill:none;stroke:#000;stroke-miterlimit:10"/><rect x="274.39" y="177.28" width="5.88" height="11.51" style="fill:none;stroke:#000;stroke-miterlimit:10"/><rect x="284.98" y="177.28" width="5.88" height="11.51" style="fill:none;stroke:#000;stroke-miterlimit:10"/><rect x="295.57" y="177.28" width="5.88" height="11.51" style="fill:none;stroke:#000;stroke-miterlimit:10"/><rect x="306.16" y="177.28" width="5.88" height="11.51" style="fill:none;stroke:#000;stroke-miterlimit:10"/><rect x="316.75" y="177.28" width="5.88" height="11.51" style="fill:none;stroke:#000;stroke-miterlimit:10"/><rect x="274.39" y="196.74" width="5.88" height="11.51" style="fill:none;stroke:#000;stroke-miterlimit:10"/><rect x="284.98" y="196.74" width="5.88" height="11.51" style="fill:none;stroke:#000;stroke-miterlimit:10"/><rect x="295.57" y="196.74" width="5.88" height="11.51" style="fill:none;stroke:#000;stroke-miterlimit:10"/><rect x="306.16" y="196.74" width="5.88" height="11.51" style="fill:none;stroke:#000;stroke-miterlimit:10"/><rect x="316.75" y="196.74" width="5.88" height="11.51" style="fill:none;stroke:#000;stroke-miterlimit:10"/><rect x="274.39" y="216.2" width="5.88" height="11.51" style="fill:none;stroke:#000;stroke-miterlimit:10"/><rect x="284.98" y="216.2" width="5.88" height="11.51" style="fill:none;stroke:#000;stroke-miterlimit:10"/><rect x="295.57" y="216.2" width="5.88" height="11.51" style="fill:none;stroke:#000;stroke-miterlimit:10"/><rect x="306.16" y="216.2" width="5.88" height="11.51" style="fill:none;stroke:#000;stroke-miterlimit:10"/><rect x="316.75" y="216.2" width="5.88" height="11.51" style="fill:none;stroke:#000;stroke-miterlimit:10"/><rect x="274.39" y="235.67" width="5.88" height="11.51" style="fill:none;stroke:#000;stroke-miterlimit:10"/><rect x="284.98" y="235.67" width="5.88" height="11.51" style="fill:none;stroke:#000;stroke-miterlimit:10"/><rect x="295.57" y="235.67" width="5.88" height="11.51" style="fill:none;stroke:#000;stroke-miterlimit:10"/><rect x="306.16" y="235.67" width="5.88" height="11.51" style="fill:none;stroke:#000;stroke-miterlimit:10"/><rect x="316.75" y="235.67" width="5.88" height="11.51" style="fill:none;stroke:#000;stroke-miterlimit:10"/><rect x="274.39" y="255.13" width="5.88" height="11.51" style="fill:none;stroke:#000;stroke-miterlimit:10"/><rect x="284.98" y="255.13" width="5.88" height="11.51" style="fill:none;stroke:#000;stroke-miterlimit:10"/><rect x="295.57" y="255.13" width="5.88" height="11.51" style="fill:none;stroke:#000;stroke-miterlimit:10"/><rect x="306.16" y="255.13" width="5.88" height="11.51" style="fill:none;stroke:#000;stroke-miterlimit:10"/><rect x="316.75" y="255.13" width="5.88" height="11.51" style="fill:none;stroke:#000;stroke-miterlimit:10"/><rect x="274.39" y="274.59" width="5.88" height="11.51" style="fill:none;stroke:#000;stroke-miterlimit:10"/><rect x="284.98" y="274.59" width="5.88" height="11.51" style="fill:none;stroke:#000;stroke-miterlimit:10"/><rect x="295.57" y="274.59" width="5.88" height="11.51" style="fill:none;stroke:#000;stroke-miterlimit:10"/><rect x="306.16" y="274.59" width="5.88" height="11.51" style="fill:none;stroke:#000;stroke-miterlimit:10"/><rect x="316.75" y="274.59" width="5.88" height="11.51" style="fill:none;stroke:#000;stroke-miterlimit:10"/><rect x="274.39" y="294.05" width="5.88" height="11.51" style="fill:none;stroke:#000;stroke-miterlimit:10"/><rect x="284.98" y="294.05" width="5.88" height="11.51" style="fill:none;stroke:#000;stroke-miterlimit:10"/><rect x="295.57" y="294.05" width="5.88" height="11.51" style="fill:none;stroke:#000;stroke-miterlimit:10"/><rect x="306.16" y="294.05" width="5.88" height="11.51" style="fill:none;stroke:#000;stroke-miterlimit:10"/><rect x="316.75" y="294.05" width="5.88" height="11.51" style="fill:none;stroke:#000;stroke-miterlimit:10"/><rect x="274.39" y="313.52" width="5.88" height="11.51" style="fill:none;stroke:#000;stroke-miterlimit:10"/><rect x="284.98" y="313.52" width="5.88" height="11.51" style="fill:none;stroke:#000;stroke-miterlimit:10"/><rect x="295.57" y="313.52" width="5.88" height="11.51" style="fill:none;stroke:#000;stroke-miterlimit:10"/><rect x="306.16" y="313.52" width="5.88" height="11.51" style="fill:none;stroke:#000;stroke-miterlimit:10"/><rect x="316.75" y="313.52" width="5.88" height="11.51" style="fill:none;stroke:#000;stroke-miterlimit:10"/><rect x="274.39" y="332.98" width="5.88" height="11.51" style="fill:none;stroke:#000;stroke-miterlimit:10"/><rect x="284.98" y="332.98" width="5.88" height="11.51" style="fill:none;stroke:#000;stroke-miterlimit:10"/><rect x="295.57" y="332.98" width="5.88" height="11.51" style="fill:none;stroke:#000;stroke-miterlimit:10"/><rect x="306.16" y="332.98" width="5.88" height="11.51" style="fill:none;stroke:#000;stroke-miterlimit:10"/><rect x="316.75" y="332.98" width="5.88" height="11.51" style="fill:none;stroke:#000;stroke-miterlimit:10"/><rect x="274.39" y="352.99" width="5.88" height="11.51" style="fill:none;stroke:#000;stroke-miterlimit:10"/><rect x="284.98" y="352.99" width="5.88" height="11.51" style="fill:none;stroke:#000;stroke-miterlimit:10"/><rect x="295.57" y="352.99" width="5.88" height="11.51" style="fill:none;stroke:#000;stroke-miterlimit:10"/><rect x="306.16" y="352.99" width="5.88" height="11.51" style="fill:none;stroke:#000;stroke-miterlimit:10"/><rect x="316.75" y="352.99" width="5.88" height="11.51" style="fill:none;stroke:#000;stroke-miterlimit:10"/><line x1="269.96" y1="149.32" x2="269.96" y2="383.97" style="fill:none;stroke:#000;stroke-miterlimit:10"/><line x1="359.91" y1="160.28" x2="359.91" y2="380.68" style="fill:none;stroke:#000;stroke-miterlimit:10"/><line x1="371.43" y1="160.28" x2="371.43" y2="380.68" style="fill:none;stroke:#000;stroke-miterlimit:10"/><line x1="382.94" y1="160.28" x2="382.94" y2="380.68" style="fill:none;stroke:#000;stroke-miterlimit:10"/><line x1="394.45" y1="160.28" x2="394.45" y2="380.68" style="fill:none;stroke:#000;stroke-miterlimit:10"/><line x1="405.96" y1="182.21" x2="405.96" y2="380.68" style="fill:none;stroke:#000;stroke-miterlimit:10"/><line x1="417.48" y1="182.21" x2="417.48" y2="380.68" style="fill:none;stroke:#000;stroke-miterlimit:10"/><line x1="428.99" y1="182.21" x2="428.99" y2="380.68" style="fill:none;stroke:#000;stroke-miterlimit:10"/><line x1="121.42" y1="107.65" x2="193.25" y2="107.65" style="fill:none;stroke:#000;stroke-miterlimit:10"/><line x1="121.42" y1="121.91" x2="193.25" y2="121.91" style="fill:none;stroke:#000;stroke-miterlimit:10"/><line x1="121.42" y1="136.16" x2="193.25" y2="136.16" style="fill:none;stroke:#000;stroke-miterlimit:10"/><line x1="121.42" y1="150.41" x2="193.25" y2="150.41" style="fill:none;stroke:#000;stroke-miterlimit:10"/><line x1="121.42" y1="164.67" x2="193.25" y2="164.67" style="fill:none;stroke:#000;stroke-miterlimit:10"/><line x1="121.42" y1="178.92" x2="193.25" y2="178.92" style="fill:none;stroke:#000;stroke-miterlimit:10"/><line x1="121.42" y1="193.18" x2="193.25" y2="193.18" style="fill:none;stroke:#000;stroke-miterlimit:10"/><line x1="121.42" y1="207.43" x2="193.25" y2="207.43" style="fill:none;stroke:#000;stroke-miterlimit:10"/><line x1="121.42" y1="221.69" x2="193.25" y2="221.69" style="fill:none;stroke:#000;stroke-miterlimit:10"/><line x1="121.42" y1="235.94" x2="193.25" y2="235.94" style="fill:none;stroke:#000;stroke-miterlimit:10"/><line x1="121.42" y1="250.2" x2="193.25" y2="250.2" style="fill:none;stroke:#000;stroke-miterlimit:10"/><line x1="121.42" y1="264.45" x2="193.25" y2="264.45" style="fill:none;stroke:#000;stroke-miterlimit:10"/><line x1="121.42" y1="278.7" x2="193.25" y2="278.7" style="fill:none;stroke:#000;stroke-miterlimit:10"/><line x1="121.42" y1="292.96" x2="193.25" y2="292.96" style="fill:none;stroke:#000;stroke-miterlimit:10"/><line x1="121.42" y1="307.21" x2="193.25" y2="307.21" style="fill:none;stroke:#000;stroke-miterlimit:10"/><line x1="121.42" y1="321.47" x2="193.25" y2="321.47" style="fill:none;stroke:#000;stroke-miterlimit:10"/><line x1="121.42" y1="335.72" x2="193.25" y2="335.72" style="fill:none;stroke:#000;stroke-miterlimit:10"/><line x1="121.42" y1="349.98" x2="193.25" y2="349.98" style="fill:none;stroke:#000;stroke-miterlimit:10"/><line x1="121.42" y1="364.23" x2="193.25" y2="364.23" style="fill:none;stroke:#000;stroke-miterlimit:10"/><line x1="130.75" y1="86.27" x2="130.75" y2="374.15" style="fill:none;stroke:#000;stroke-miterlimit:10"/><polyline points="624.17 147.13 640.07 147.13 640.07 154.8 624.17 154.8" style="fill:none;stroke:#000;stroke-miterlimit:10"/><polyline points="716.82 233.2 698.73 233.2 698.73 240.88 716.82 240.88" style="fill:none;stroke:#000;stroke-miterlimit:10"/><polyline points="716.82 251.29 698.73 251.29 698.73 258.97 716.82 258.97" style="fill:none;stroke:#000;stroke-miterlimit:10"/><polyline points="716.82 269.38 698.73 269.38 698.73 277.06 716.82 277.06" style="fill:none;stroke:#000;stroke-miterlimit:10"/><polyline points="716.82 287.48 698.73 287.48 698.73 295.15 716.82 295.15" style="fill:none;stroke:#000;stroke-miterlimit:10"/><polyline points="716.82 305.57 698.73 305.57 698.73 313.24 716.82 313.24" style="fill:none;stroke:#000;stroke-miterlimit:10"/><polyline points="716.82 323.66 698.73 323.66 698.73 331.34 716.82 331.34" style="fill:none;stroke:#000;stroke-miterlimit:10"/><polyline points="716.82 341.75 698.73 341.75 698.73 349.43 716.82 349.43" style="fill:none;stroke:#000;stroke-miterlimit:10"/><polyline points="716.82 359.84 698.73 359.84 698.73 367.52 716.82 367.52" style="fill:none;stroke:#000;stroke-miterlimit:10"/><polyline points="624.17 167.96 640.07 167.96 640.07 175.63 624.17 175.63" style="fill:none;stroke:#000;stroke-miterlimit:10"/><polyline points="624.17 188.79 640.07 188.79 640.07 196.47 624.17 196.47" style="fill:none;stroke:#000;stroke-miterlimit:10"/><polyline points="624.17 209.63 640.07 209.63 640.07 217.3 624.17 217.3" style="fill:none;stroke:#000;stroke-miterlimit:10"/><polyline points="624.17 230.46 640.07 230.46 640.07 238.13 624.17 238.13" style="fill:none;stroke:#000;stroke-miterlimit:10"/><polyline points="624.17 251.29 640.07 251.29 640.07 258.97 624.17 258.97" style="fill:none;stroke:#000;stroke-miterlimit:10"/><polyline points="624.17 272.13 640.07 272.13 640.07 279.8 624.17 279.8" style="fill:none;stroke:#000;stroke-miterlimit:10"/><polyline points="624.17 292.96 640.07 292.96 640.07 300.63 624.17 300.63" style="fill:none;stroke:#000;stroke-miterlimit:10"/><polyline points="624.17 313.79 640.07 313.79 640.07 321.47 624.17 321.47" style="fill:none;stroke:#000;stroke-miterlimit:10"/><polyline points="624.17 334.63 640.07 334.63 640.07 342.3 624.17 342.3" style="fill:none;stroke:#000;stroke-miterlimit:10"/><rect x="529.87" y="197.02" width="69.08" height="6.58" style="fill:none;stroke:#000;stroke-miterlimit:10"/><rect x="529.87" y="208.53" width="69.08" height="6.58" style="fill:none;stroke:#000;stroke-miterlimit:10"/><rect x="529.87" y="220.04" width="69.08" height="6.58" style="fill:none;stroke:#000;stroke-miterlimit:10"/><rect x="529.87" y="231.55" width="69.08" height="6.58" style="fill:none;stroke:#000;stroke-miterlimit:10"/><rect x="529.87" y="243.07" width="69.08" height="6.58" style="fill:none;stroke:#000;stroke-miterlimit:10"/><rect x="529.87" y="254.58" width="69.08" height="6.58" style="fill:none;stroke:#000;stroke-miterlimit:10"/><rect x="529.87" y="266.09" width="69.08" height="6.58" style="fill:none;stroke:#000;stroke-miterlimit:10"/><rect x="529.87" y="277.61" width="69.08" height="6.58" style="fill:none;stroke:#000;stroke-miterlimit:10"/><rect x="529.87" y="289.12" width="69.08" height="6.58" style="fill:none;stroke:#000;stroke-miterlimit:10"/><rect x="529.87" y="300.63" width="69.08" height="6.58" style="fill:none;stroke:#000;stroke-miterlimit:10"/><rect x="529.87" y="312.15" width="69.08" height="6.58" style="fill:none;stroke:#000;stroke-miterlimit:10"/><rect x="529.87" y="323.66" width="69.08" height="6.58" style="fill:none;stroke:#000;stroke-miterlimit:10"/><rect x="529.87" y="335.17" width="69.08" height="6.58" style="fill:none;stroke:#000;stroke-miterlimit:10"/><rect x="529.87" y="346.69" width="69.08" height="6.58" style="fill:none;stroke:#000;stroke-miterlimit:10"/><rect x="529.87" y="358.2" width="69.08" height="6.58" style="fill:none;stroke:#000;stroke-miterlimit:10"/><rect x="529.87" y="369.71" width="69.08" height="6.58" style="fill:none;stroke:#000;stroke-miterlimit:10"/><rect x="529.87" y="381.23" width="69.08" height="6.58" style="fill:none;stroke:#000;stroke-miterlimit:10"/><line x1="649.93" y1="129.03" x2="649.93" y2="383.42" style="fill:none;stroke:#000;stroke-miterlimit:10"/><line x1="664.19" y1="80.79" x2="664.19" y2="383.42" style="fill:none;stroke:#000;stroke-miterlimit:10"/><rect x="465.72" y="325.31" width="34.54" height="18.09" style="fill:none;stroke:#000;stroke-miterlimit:10"/><rect x="473.95" y="293.51" width="18.09" height="31.8" style="fill:none;stroke:#000;stroke-miterlimit:10"/><line x1="328.48" y1="226.46" x2="328.48" y2="383.53" style="fill:none;stroke:#000;stroke-miterlimit:10"/><line x1="526.87" y1="209.24" x2="443" y2="209.24" style="fill:none;stroke:#000;stroke-miterlimit:10"/><line x1="526.87" y1="218.61" x2="443" y2="218.61" style="fill:none;stroke:#000;stroke-miterlimit:10"/><rect x="446.75" y="225.64" width="12.79" height="9.37" style="fill:none;stroke:#000;stroke-miterlimit:10"/><rect x="462.52" y="225.64" width="12.79" height="9.37" style="fill:none;stroke:#000;stroke-miterlimit:10"/><rect x="478.3" y="225.64" width="12.79" height="9.37" style="fill:none;stroke:#000;stroke-miterlimit:10"/><rect x="494.08" y="225.64" width="12.79" height="9.37" style="fill:none;stroke:#000;stroke-miterlimit:10"/><rect x="509.86" y="225.64" width="12.79" height="9.37" style="fill:none;stroke:#000;stroke-miterlimit:10"/><rect x="446.75" y="240.16" width="12.79" height="9.37" style="fill:none;stroke:#000;stroke-miterlimit:10"/><rect x="462.52" y="240.16" width="12.79" height="9.37" style="fill:none;stroke:#000;stroke-miterlimit:10"/><rect x="478.3" y="240.16" width="12.79" height="9.37" style="fill:none;stroke:#000;stroke-miterlimit:10"/><rect x="494.08" y="240.16" width="12.79" height="9.37" style="fill:none;stroke:#000;stroke-miterlimit:10"/><rect x="509.86" y="240.16" width="12.79" height="9.37" style="fill:none;stroke:#000;stroke-miterlimit:10"/><rect x="446.75" y="254.69" width="12.79" height="9.37" style="fill:none;stroke:#000;stroke-miterlimit:10"/><rect x="462.52" y="254.69" width="12.79" height="9.37" style="fill:none;stroke:#000;stroke-miterlimit:10"/><rect x="478.3" y="254.69" width="12.79" height="9.37" style="fill:none;stroke:#000;stroke-miterlimit:10"/><rect x="494.08" y="254.69" width="12.79" height="9.37" style="fill:none;stroke:#000;stroke-miterlimit:10"/><rect x="509.86" y="254.69" width="12.79" height="9.37" style="fill:none;stroke:#000;stroke-miterlimit:10"/><rect x="446.75" y="280.93" width="12.79" height="9.37" style="fill:none;stroke:#000;stroke-miterlimit:10"/><rect x="462.52" y="280.93" width="12.79" height="9.37" style="fill:none;stroke:#000;stroke-miterlimit:10"/><rect x="478.3" y="280.93" width="12.79" height="9.37" style="fill:none;stroke:#000;stroke-miterlimit:10"/><rect x="494.08" y="280.93" width="12.79" height="9.37" style="fill:none;stroke:#000;stroke-miterlimit:10"/><rect x="509.86" y="280.93" width="12.79" height="9.37" style="fill:none;stroke:#000;stroke-miterlimit:10"/></g><path d="M813.78,233.55c0,42.78-36.61,77.47-81.76,77.47s-81.76-34.69-81.76-77.47S686.86,128.82,732,128.82,813.78,190.76,813.78,233.55Z" style="fill:#d9b162"/><path d="M813.78,233.55c0,42.78-36.61,77.47-81.76,77.47s-81.76-34.69-81.76-77.47S686.86,128.82,732,128.82,813.78,190.76,813.78,233.55Z" style="fill:#fff;opacity:0.32"/><polygon points="725.07 460.75 726.36 298.86 701.61 261.53 726.34 289.07 726.34 260.41 712.85 216.56 727.46 251.41 730 194.43 731.4 256.47 731.96 266.59 771.31 230.05 733.64 274.46 733.08 289.07 749.38 275.58 765.69 250.85 754.19 274.05 779.74 272.77 752.2 276.98 734.21 294.4 735.33 460.71 725.07 460.75" style="fill:#787878"/><path d="M122.59,276.14c0,31.71-27.12,57.41-60.58,57.41S1.42,307.85,1.42,276.14s27.12-77.6,60.59-77.6S122.59,244.44,122.59,276.14Z" style="fill:#d9b162"/><path d="M122.59,276.14c0,31.71-27.12,57.41-60.58,57.41S1.42,307.85,1.42,276.14s27.12-77.6,60.59-77.6S122.59,244.44,122.59,276.14Z" style="fill:#fff;opacity:0.32"/><polygon points="56.85 445.51 57.81 324.54 39.47 296.88 57.8 317.29 57.8 296.05 47.8 263.56 58.63 289.38 60.51 247.16 61.55 293.13 61.96 300.63 91.12 273.55 63.21 306.46 62.79 317.29 74.87 307.29 86.95 288.97 78.43 306.15 97.37 305.21 76.96 308.32 63.63 321.24 64.46 445.48 56.85 445.51" style="fill:#787878"/><path d="M634.26,256.21c0,38.59-33,69.87-73.73,69.87s-73.74-31.28-73.74-69.87,33-94.44,73.74-94.44S634.26,217.63,634.26,256.21Z" style="fill:#d9b162"/><path d="M634.26,256.21c0,38.59-33,69.87-73.73,69.87s-73.74-31.28-73.74-69.87,33-94.44,73.74-94.44S634.26,217.63,634.26,256.21Z" style="fill:#fff;opacity:0.32"/><polygon points="554.26 456.14 555.42 315.11 533.1 281.45 555.4 306.29 555.4 280.44 543.24 240.9 556.42 272.33 558.71 220.94 559.97 276.89 560.47 286.01 595.96 253.06 561.99 293.11 561.49 306.29 576.19 294.12 590.89 271.82 580.52 292.74 603.56 291.59 578.72 295.38 562.5 311.09 563.51 456.1 554.26 456.14" style="fill:#787878"/><path d="M667.53,456.14l-63.13-8.61s-5.74-32-22.95-43-49.19-16.8-57.8,1.64-5.74,31.57-5.74,31.57L251.48,420.89S244.1,395.48,226.07,391s-21.52,2.28-27.57,11.18-8,28-8,28l-43.92,1.4v16.8h41l2.05,25.42s-.82,1.64,4.1,1.64h81.16L281,464.75l13.12.41a38.94,38.94,0,0,0,10.25,5.33c5.32,1.64,13.11,1.64,13.11,1.64l144.29-.82,60.12,1.25c.88,4.75,3.06,15.41,4.83,16.43,2.3,1.31,19.68,0,19.68,0l1.79-15.88,51.3,1.07,1.64,10.24,66.82-1.23,1.63,4.1,29.93.41V456.14Z" style="fill:#233239;stroke:#233239;stroke-linecap:round;stroke-linejoin:round"/><path d="M258.81,410.23H241.33v12.88c-4.52,8-7.32,19.12-7.32,31.39s2.8,23.37,7.32,31.39v12.88h17.48c13.7,0,24.8-19.82,24.8-44.27S272.51,410.23,258.81,410.23Z" style="fill:#233239;stroke:#233239;stroke-linecap:round;stroke-linejoin:round"/><ellipse cx="241.33" cy="454.5" rx="24.8" ry="44.27" style="fill:#233239;stroke:#233239;stroke-linecap:round;stroke-linejoin:round"/><ellipse cx="241.33" cy="454.5" rx="14.5" ry="25.88" style="fill:#fff;stroke:#233239;stroke-linecap:round;stroke-linejoin:round"/><path d="M238.73,410.23H221.24v12.88c-4.51,8-7.31,19.12-7.31,31.39s2.8,23.37,7.31,31.39v12.88h17.49c13.69,0,24.8-19.82,24.8-44.27S252.42,410.23,238.73,410.23Z" style="fill:#233239;stroke:#233239;stroke-linecap:round;stroke-linejoin:round"/><ellipse cx="221.24" cy="454.5" rx="24.8" ry="44.27" style="fill:#616161;stroke:#233239;stroke-linecap:round;stroke-linejoin:round"/><ellipse cx="221.24" cy="454.5" rx="14.5" ry="25.88" style="fill:#fff;stroke:#233239;stroke-linecap:round;stroke-linejoin:round"/><path d="M394.49,403.19H377c-.43,0-.87,0-1.3.06s-.86-.06-1.3-.06H356.92c-13.7,0-24.8,19.82-24.8,44.27s11.1,44.27,24.8,44.27H374.4c.44,0,.87,0,1.3-.06s.87.06,1.3.06h17.49c13.7,0,24.8-19.82,24.8-44.27S408.19,403.19,394.49,403.19Z" style="fill:#233239;stroke:#233239;stroke-linecap:round;stroke-linejoin:round"/><path d="M578.63,227.66s-417.19,12.83-442.86,17-49.52,7.79-55.48,21.09-6,168.71-6,168.71L196.74,438s3.67-40.28,22-42.57,27.51,44.93,27.51,44.93l208.27,6.39,4.38,32,7.17,1.48h46.07V277.59s5-24.65,22.5-33.13,54.41-13.12,54.41-13.12Z" style="fill:#d9b162"/><line x1="462.01" y1="450.17" x2="500.49" y2="450.17" style="fill:none;stroke:#233239;stroke-linecap:round;stroke-linejoin:round"/><line x1="460.95" y1="466.76" x2="499.43" y2="466.76" style="fill:none;stroke:#233239;stroke-linecap:round;stroke-linejoin:round"/><rect x="455.86" y="266.58" width="69.82" height="166.75" style="fill:#616161;stroke:#233239;stroke-linecap:round;stroke-linejoin:round"/><path d="M77.87,281.76,514.79,269c3-8,9.07-19.3,19.85-24.52,17.5-8.48,54.41-13.12,54.41-13.12l-10.42-3.68s-417.19,12.83-442.86,17-49.52,7.79-55.48,21.09C79.34,267.83,78.54,273.59,77.87,281.76Z" style="fill:#fff;stroke:#233239;stroke-linecap:round;stroke-linejoin:round"/><path d="M581,416.82H562v14c-4.91,8.72-8,20.8-8,34.14s3,25.42,8,34.14v14h19c14.89,0,27-21.56,27-48.15S595.9,416.82,581,416.82Z" style="fill:#233239;stroke:#233239;stroke-linecap:round;stroke-linejoin:round"/><ellipse cx="561.99" cy="464.97" rx="26.97" ry="48.15" style="fill:#616161;stroke:#233239;stroke-linecap:round;stroke-linejoin:round"/><ellipse cx="561.99" cy="464.97" rx="15.77" ry="28.15" style="fill:#fff;stroke:#233239;stroke-linecap:round;stroke-linejoin:round"/><path d="M732,409.78H713v14c-4.92,8.72-8,20.8-8,34.14s3,25.42,8,34.14v14h19c14.9,0,27-21.56,27-48.15S746.89,409.78,732,409.78Z" style="fill:#233239;stroke:#233239;stroke-linecap:round;stroke-linejoin:round"/><ellipse cx="712.98" cy="457.93" rx="26.97" ry="48.15" style="fill:#233239;stroke:#233239;stroke-linecap:round;stroke-linejoin:round"/><ellipse cx="712.98" cy="457.93" rx="15.77" ry="28.15" style="fill:#233239;stroke:#233239;stroke-linecap:round;stroke-linejoin:round"/><path d="M569.25,228.61s-27,3-42.08,12-14.21,26-15,32,0,207.68,0,207.68l3.55-1.37h7.66s-3.83-44,8.47-62.85,32.24-16.94,39.89-10.93,9.29,15,14.48,27.87,8.2,26.24,14.49,27.33S701.51,465.25,728,462s33.61-5.19,36.07-8.2,5.74-27.6,4.92-30.33a9,9,0,0,0-2.46-4.1s0-15.85-2.19-19.13-23.22-17.49-24-19.67-3-9.84-9.84-16.4-18.58-12.84-18.58-12.84-3.55-5.46-6.56-6.28c0,0-.55-4.65-1.91-5.2s-4.65-2.18-4.65-2.18V266.05s1.92-15.31-15-25.14-50-14.76-66.94-15S587.83,225.61,569.25,228.61Z" style="fill:#d9b162"/><path d="M527.25,269.76H697.47a0,0,0,0,1,0,0v68.87a0,0,0,0,1,0,0H527.25A11.59,11.59,0,0,1,515.65,327V281.35A11.59,11.59,0,0,1,527.25,269.76Z" style="fill:#616161;stroke:#233239;stroke-linecap:round;stroke-linejoin:round"/><rect x="558.78" y="281.79" width="28.61" height="33.97" style="fill:#fff"/><rect x="592.75" y="282.38" width="38.14" height="37.55" style="fill:#fff"/><rect x="647.87" y="282.08" width="46.19" height="53.34" style="fill:#fff"/><rect x="525.1" y="282.08" width="27.12" height="31.29" style="fill:#fff"/><path d="M581.6,334.73s1.48-24.65,6.9-28.23,16.15-3.94,21.2-1.11c1.78,1,6.59,28.46,6.59,28.46Z" style="fill:#233239;stroke:#233239;stroke-linecap:round;stroke-linejoin:round"/><path d="M604.15,313.16s-8.38,3.08-11.21,6.53-4.07,12.82-4.07,12.82h48.19s-2-12.2-5.91-15.16-11.84-4.56-13.68-4-5.8.13-5.8.13Z" style="fill:#d9b162"/><path d="M605.91,311.69s-.86-.77-1.76,1.47.48,6.54.48,7.23,6.2-2.93,6.2-2.93l5.68,3.44s4.82-3.44,5-6.36-4.47-3.79-4.47-3.79Z" style="fill:#fff;stroke:#233239;stroke-linecap:round;stroke-linejoin:round"/><line x1="626.34" y1="327.58" x2="627.47" y2="329.95" style="fill:none;stroke:#233239;stroke-linecap:round;stroke-linejoin:round;stroke-width:0.75px"/><line x1="599.39" y1="329.95" x2="598.42" y2="326.81" style="fill:none;stroke:#233239;stroke-linecap:round;stroke-linejoin:round;stroke-width:0.75px"/><line x1="624.53" y1="320.52" x2="624.98" y2="322.77" style="fill:none;stroke:#233239;stroke-linecap:round;stroke-linejoin:round;stroke-width:0.75px"/><path d="M615,292.33s3.59.64,4.49,3.2a19.7,19.7,0,0,1,.64,6.41s1.16-.51,1.16,1.67-.13,3.59-.9,4-1.67.77-1.67.77A32.46,32.46,0,0,1,619,314c-.26,1.28-7.82,5.38-9.1,5.77s-3.6-5.77-3.6-6.16a17,17,0,0,0-.38-1.92,7.66,7.66,0,0,1-1.67-4c-.13-2.18.9-11.41,1.93-13.33S613.09,290.79,615,292.33Z" style="fill:#fff;stroke:#233239;stroke-linecap:round;stroke-linejoin:round"/><path d="M606.38,294.07c1.44-1.78,6.81-3.2,8.63-1.74,0,0,3.59.64,4.49,3.2a19.7,19.7,0,0,1,.64,6.41s-1.41,1.29-1.92.77,0-1.92-.38-2.43-1.54-1-1.67-2.31.51-1.41,0-2.31-3.08-1.41-5.26-1.28A13.64,13.64,0,0,1,606.38,294.07Z" style="fill:#233239;stroke:#233239;stroke-linecap:round;stroke-linejoin:round"/><path d="M611.94,301.75c0,.53.31,1,.7,1s.71-.43.71-1-.32-1-.71-1S611.94,301.22,611.94,301.75Z" style="fill:#233239"/><path d="M606.68,301.94c0,.54.31,1,.7,1s.71-.43.71-1-.32-1-.71-1S606.68,301.41,606.68,301.94Z" style="fill:#233239"/><path d="M613.86,300.41a5.59,5.59,0,0,0-3.21-.39" style="fill:none;stroke:#233239;stroke-linecap:round;stroke-linejoin:round;stroke-width:0.75px"/><path d="M608.35,300a2.85,2.85,0,0,0-2.31.13" style="fill:none;stroke:#233239;stroke-linecap:round;stroke-linejoin:round;stroke-width:0.75px"/><path d="M608.22,304.12a1.22,1.22,0,0,0,.38,1.8,2.79,2.79,0,0,0,2.18.26" style="fill:none;stroke:#233239;stroke-linecap:round;stroke-linejoin:round;stroke-width:0.75px"/><path d="M606.94,307.71s4.74,1.93,6-.12" style="fill:none;stroke:#233239;stroke-linecap:round;stroke-linejoin:round;stroke-width:0.75px"/><path d="M605.91,311.69a8.5,8.5,0,0,0,4.49,1.41,8.74,8.74,0,0,0,3.84-.38l-7.3,2.69A38,38,0,0,0,605.91,311.69Z" style="fill:#233239;stroke:#233239;stroke-linecap:round;stroke-linejoin:round"/><path d="M623.75,324.37a15.61,15.61,0,0,0-2.83,1.48c-.25.37-.74,1.36.61,1.61a12.21,12.21,0,0,0,4-.5Z" style="fill:#fff;stroke:#233239;stroke-linecap:round;stroke-linejoin:round"/><path d="M649.49,335.81H621.1a1.21,1.21,0,0,1-1.2-1.09c-.53-5.51,5.51-11.06,14.05-12.92,9.06-2,17.12,1,18.36,6.71a8.24,8.24,0,0,1-1.87,6.83A1.18,1.18,0,0,1,649.49,335.81Zm-27.16-2.41h26.54A5.74,5.74,0,0,0,650,329c-.93-4.26-8-6.48-15.5-4.86C628,325.57,622.86,329.55,622.33,333.4Z" style="fill:#233239"/><path d="M625,322.77s-1.72.5-1.23,1.6,1.11,3.21,2.59,3.21-.37-4.19-.37-4.19S626,323.27,625,322.77Z" style="fill:#fff;stroke:#233239;stroke-linecap:round;stroke-linejoin:round"/><path d="M627.45,321.66s-1.73.5-1.23,1.61,1.11,3.2,2.59,3.2-.37-4.19-.37-4.19S628.44,322.16,627.45,321.66Z" style="fill:#fff;stroke:#233239;stroke-linecap:round;stroke-linejoin:round"/><path d="M630,321.53s-1.55.44-1.11,1.44,1,2.88,2.33,2.88-.33-3.77-.33-3.77S630.92,322,630,321.53Z" style="fill:#fff;stroke:#233239;stroke-linecap:round;stroke-linejoin:round"/><path d="M529.63,338.63H697.47v-1.89c-3.15-2.1-6.83-4.22-9.5-4.73-5.69-1.08-20.59-1.9-20.59-1.9a62.53,62.53,0,0,0-18.69-3.79c-9.76-.27-23,4.61-23,4.61s-16.8.54-21.95,0-21.41,2.71-21.41,2.71l-63.76-.5A14,14,0,0,0,529.63,338.63Z" style="fill:#233239;stroke:#233239;stroke-linecap:round;stroke-linejoin:round"/><path d="M754.19,405h11.49a13.43,13.43,0,0,0-1.33-4.82c-1.05-1.58-6.5-5.71-11.94-9.8-3.27,0-6.69.22-5.35,1.36,2.38,2,8.32,5.78,9,8.67A4.54,4.54,0,0,1,754.19,405Z" style="fill:#233239;stroke:#233239;stroke-linecap:round;stroke-linejoin:round"/><polygon points="752.33 392.62 753.51 389.56 752.33 388.38 752.33 386 757.59 386 757.59 388.2 756.91 389.39 759.29 398.06 752.33 392.62" style="fill:#233239;stroke:#233239;stroke-linecap:round;stroke-linejoin:round"/><path d="M755,389.07a1.2,1.2,0,0,1-1.2-1.2V366a6.66,6.66,0,0,1,6.65-6.66H792a3.83,3.83,0,0,0,3.82-3.82v-7.21a1.21,1.21,0,0,1,2.41,0v7.21a6.23,6.23,0,0,1-6.23,6.23h-31.5a4.25,4.25,0,0,0-4.24,4.25v21.91A1.21,1.21,0,0,1,755,389.07Z" style="fill:#233239"/><path d="M789.88,334.17,794,349.46h6.28s.34-13.08-.51-13.93S794.64,334.34,789.88,334.17Z" style="fill:#233239;stroke:#233239;stroke-linecap:round;stroke-linejoin:round"/><path d="M789.88,334.17s-5.1.51-5.44,2.55,2.72,7.3,4.25,9.17,5.27,3.57,5.27,3.57Z" style="fill:#fff;stroke:#233239;stroke-linecap:round;stroke-linejoin:round"/><path d="M710.74,417.63h.57c.48-14.8-1.23-35.83-1.95-43.81a2,2,0,0,0-.39.07,5.58,5.58,0,0,0-1.59,1.39C708.63,384.71,711.27,406.33,710.74,417.63Z" style="fill:#233239"/><path d="M667.57,414.9c.45.11.94.21,1.48.31-2-13.72-7.17-31.69-9.61-39.82-.57.09-1.1.19-1.56.29C660.35,383.58,665.17,400,667.57,414.9Z" style="fill:#233239"/><path d="M728.08,417.48c1.79-15.64,1.78-34.89,1.7-42l-1.33-.14a332.51,332.51,0,0,1-.8,42.19Z" style="fill:#233239"/><path d="M663.65,374.9l-1.79.17c2.55,8.52,7.73,26.79,9.69,40.55l.66.09C669.8,399.63,665.47,382,663.65,374.9Z" style="fill:#233239"/><path d="M718.12,417.65c1.36-16.8.18-36.4-.33-43.37l-2-.17a425.93,425.93,0,0,1,1.49,43.54Z" style="fill:#233239"/><path d="M713.72,417.63h1.16a424.57,424.57,0,0,0-1.51-43.71l-1.59-.09C712.51,382,714.2,402.84,713.72,417.63Z" style="fill:#233239"/><path d="M725.22,417.6a331.34,331.34,0,0,0,.81-42.53l-1.76-.18c.51,7.43,1.63,27.11.38,42.72Z" style="fill:#233239"/><path d="M730.54,417.26c.47-.06.9-.13,1.31-.22a258.31,258.31,0,0,0,1.5-41.2l-1.15-.12C732.27,383,732.26,401.78,730.54,417.26Z" style="fill:#233239"/><path d="M668.22,374.6l-2.13.12c1.92,7.52,6.25,25.25,8.61,41.3l2.33.25C674.65,399.26,669.8,380.5,668.22,374.6Z" style="fill:#233239"/><path d="M722.23,417.64c1.29-15.79.1-35.94-.4-43l-1.6-.15c.52,7.33,1.63,26.54.31,43.15Z" style="fill:#233239"/><path d="M702.11,381.13a8,8,0,0,1-1,.76c1,8.33,2.74,23.26,3.17,35.71H705C704.48,405.86,702.93,389.41,702.11,381.13Z" style="fill:#233239"/><path d="M696.12,380.87c-.49-.31-1-.65-1.52-1,1.13,8.91,3,25.17,3.57,37.62l1.28,0C699,404.44,697.12,388.61,696.12,380.87Z" style="fill:#233239"/><path d="M655.66,376.68c-2.59,3.77,6.44,34.81,8.94,37.1a1.68,1.68,0,0,0,.38.26C662.58,399.82,658.06,384.39,655.66,376.68Z" style="fill:#233239"/><path d="M737.77,380.5c-.78-3.11-1.44-4.06-2-4.35a262.07,262.07,0,0,1-1.4,40,4,4,0,0,0,.83-.66C737.56,412.93,738.84,384.77,737.77,380.5Z" style="fill:#233239"/><path d="M673,374.42l-2.33.08c1.75,6.54,6.51,25.19,8.82,42l.84.07C679.12,399.49,674.65,380.86,673,374.42Z" style="fill:#233239"/><path d="M705.26,377.75l-1,1.11c.74,7.36,2.53,25.89,3.15,38.76h.86C708.83,407.47,706.58,388,705.26,377.75Z" style="fill:#233239"/><path d="M691.91,377.86c-.92-.73-1.76-1.42-2.46-2,1.66,9.16,4.81,27.66,5.77,41.53l.53,0C695.14,403.9,693,385.92,691.91,377.86Z" style="fill:#233239"/><path d="M682.45,374.29h-2.38A355.3,355.3,0,0,1,687.23,417l1.07.06C687.66,400.05,684.25,382.51,682.45,374.29Z" style="fill:#233239"/><path d="M677.61,374.33l-2.13,0c1.78,7,6.12,25.48,7.29,42.39l2,.13A356.47,356.47,0,0,0,677.61,374.33Z" style="fill:#233239"/><path d="M686.71,374.3h-1.79c1.85,8.55,5.19,26,5.8,42.92l2.07.09C691.74,402.47,688.21,382.39,686.71,374.3Z" style="fill:#233239"/><path d="M594.41,402.26s-1.28,3,1.71,6.19,11.73,8.11,26,11.52,28.59,3.63,29,1.71-7.9-13.66-10.46-14.51-3.94-1.23-3.94-1.23S606.14,405.89,594.41,402.26Z" style="fill:#fff;stroke:#233239;stroke-linecap:round;stroke-linejoin:round"/><path d="M754.19,405s-3.62,1.07-4,3S748,421.68,748,421.68s13.59.66,18.53-2.34c0,0,1-7.71-.86-14.31Z" style="fill:#fff;stroke:#233239;stroke-linecap:round;stroke-linejoin:round"/><path d="M767.06,419.87a19.46,19.46,0,0,1-5.61,3.94c-5.54,2.77-55,4.05-108.16,1.92-45.46-1.83-66.38-3.81-71.47-4.34,1.3,3.47,2.64,7.32,4.37,11.61,5.19,12.85,8.2,26.24,14.49,27.33S701.51,465.25,728,462s33.61-5.19,36.07-8.2,5.74-27.6,4.92-30.33A9.75,9.75,0,0,0,767.06,419.87Z" style="fill:#233239;stroke:#233239;stroke-linecap:round;stroke-linejoin:round"/><rect x="699.86" y="279.77" width="12.15" height="22.64" rx="2.77" style="fill:#233239;stroke:#233239;stroke-linecap:round;stroke-linejoin:round"/><rect x="699.86" y="307.65" width="12.15" height="22.64" rx="2.77" style="fill:#233239;stroke:#233239;stroke-linecap:round;stroke-linejoin:round"/><rect x="521.85" y="283.1" width="22.4" height="25.61" rx="2.77" style="fill:#233239;stroke:#233239;stroke-linecap:round;stroke-linejoin:round"/><rect x="521.85" y="311.07" width="22.4" height="25.61" rx="2.77" style="fill:#233239;stroke:#233239;stroke-linecap:round;stroke-linejoin:round"/><path d="M511.36,281.2H542a3.94,3.94,0,0,1,3.94,3.94v52.17a4,4,0,0,1-3.94,3.94H508.5" style="fill:none;stroke:#233239;stroke-linecap:round;stroke-linejoin:round;stroke-width:2px"/><path d="M632.18,382.57a72.25,72.25,0,0,1,9.42,4.33" style="fill:none;stroke:#233239;stroke-linecap:round;stroke-linejoin:round"/><path d="M527,366.6h15.64s51.58,3.38,84.06,14" style="fill:none;stroke:#233239;stroke-linecap:round;stroke-linejoin:round"/><path d="M544.72,353.88a7.51,7.51,0,1,1-7.5-7.87A7.69,7.69,0,0,1,544.72,353.88Z" style="fill:#fff;stroke:#233239;stroke-linecap:round;stroke-linejoin:round"/><path d="M537.83,346.05a7.89,7.89,0,1,0,6.89,7.83A7.72,7.72,0,0,0,537.83,346.05Z" style="fill:#fff;stroke:#233239;stroke-linecap:round;stroke-linejoin:round"/><path d="M574.41,380.72a110.3,110.3,0,0,1,24.94,3.15c13.77,3.27,39,13.77,43.88,17.74" style="fill:none;stroke:#233239;stroke-linecap:round;stroke-linejoin:round"/><path d="M528.4,416.31s4.43-20.77,19.84-29.64a45.66,45.66,0,0,1,17-5.38" style="fill:none;stroke:#233239;stroke-linecap:round;stroke-linejoin:round"/><path d="M570.16,344.24c34.57-1.71,108.78-1.46,117.41,1.12,11,3.27,21.71,5.6,21.71,5.6" style="fill:none;stroke:#233239;stroke-linecap:round;stroke-linejoin:round"/><path d="M538.37,385.7c.64-4.47,1.51-10.09,2.17-12.57a46.77,46.77,0,0,1,2.1-6.53s3.26-17,10.27-20.54c1.07-.54,4.75-1,10.25-1.4" style="fill:none;stroke:#233239;stroke-linecap:round;stroke-linejoin:round"/><path d="M537.5,392s.19-1.49.49-3.65" style="fill:none;stroke:#233239;stroke-linecap:round;stroke-linejoin:round"/><path d="M693,357.53a36.12,36.12,0,0,1,3.19,3.7" style="fill:none;stroke:#233239;stroke-linecap:round;stroke-linejoin:round"/><path d="M676.37,346.76a48.72,48.72,0,0,1,13.44,7.83" style="fill:none;stroke:#233239;stroke-linecap:round;stroke-linejoin:round"/><path d="M591.18,401.76s10.81-2.3,13.57-4.6a16.34,16.34,0,0,0,4.14-6.44l1.34-1.77-.88-.77v-2.44H615v2.33l-1.11.66a9.73,9.73,0,0,1,2.11,3.44,17.21,17.21,0,0,0,11.43,10.77c7.66,2,9.32,3,9.32,3s-16.65-.11-28.52-1S591.18,401.76,591.18,401.76Z" style="fill:#233239;stroke:#233239;stroke-linecap:round;stroke-linejoin:round"/><path d="M612.09,388.81a1.21,1.21,0,0,1-1.21-1.21V362.25a4.74,4.74,0,0,1,4.74-4.74H628a2.25,2.25,0,0,0,2.25-2.25v-9.65a1.21,1.21,0,1,1,2.41,0v9.65a4.66,4.66,0,0,1-4.66,4.66H615.62a2.33,2.33,0,0,0-2.33,2.33V387.6A1.21,1.21,0,0,1,612.09,388.81Z" style="fill:#233239"/><path d="M622.17,332.17s-5.38,0-5.88,1.68,2.18,10.58,5,12.6,18,2.52,20.32,1.51,6.55-10.41,6.05-12.77-3.36-2.68-3.86-2.68Z" style="fill:#233239;stroke:#233239;stroke-linecap:round;stroke-linejoin:round"/><path d="M517.55,264.27h60.69s-4.1-29.8-5.77-32.4a13.72,13.72,0,0,0-3.22-3.26s-33.28,8.57-40.59,14S516.46,262.38,517.55,264.27Z" style="fill:#233239;stroke:#233239;stroke-linecap:round;stroke-linejoin:round"/><path d="M683.74,240.91c-6.32-3.67-14.88-6.66-24-9l-.19.36s.27,2.44-.82,8.13-6,25.47-6,25.47h46C698.93,264.35,699.74,250.2,683.74,240.91Z" style="fill:#233239;stroke:#233239;stroke-linecap:round;stroke-linejoin:round"/><path d="M675.78,255.17c0,4.88-3.17,8.83-7.09,8.83s-7.1-3.95-7.1-8.83,3.18-8.84,7.1-8.84S675.78,250.29,675.78,255.17Z" style="fill:#fff;stroke:#233239;stroke-linecap:round;stroke-linejoin:round"/><ellipse cx="683.59" cy="255.17" rx="7.1" ry="8.84" style="fill:#fff;stroke:#233239;stroke-linecap:round;stroke-linejoin:round"/><ellipse cx="548.66" cy="255.17" rx="7.1" ry="8.84" style="fill:#fff;stroke:#233239;stroke-linecap:round;stroke-linejoin:round"/><ellipse cx="563.56" cy="255.17" rx="7.1" ry="8.84" style="fill:#fff;stroke:#233239;stroke-linecap:round;stroke-linejoin:round"/><line x1="581.76" y1="264.82" x2="650.04" y2="264.82" style="fill:none;stroke:#233239;stroke-linecap:round;stroke-linejoin:round"/><path d="M417.82,275.66l38.57-.94V339H417.82ZM385.62,339h25.76V275.48l-25.76.62ZM350,339h29.52V276.1L350,277Zm-35.39,0h28.53V277.17l-28.53.85Zm-34.21,0H308v-60.8l-27.58.81Zm-33.1,0H274v-59.8l-26.68.79Zm-28.44,0h24V280.14l-24,.72Zm-28.09,0H214.1V281l-23.32.69Zm-27.31,0h22.67v-57.2l-22.67.68Zm-26.54,0h22V282.63l-22,.65Zm-25.82,0h21.44V283.41l-21.44.64Zm-28.26,0h24V284.17l-24,.71Z" style="fill:#969696;stroke:#233239;stroke-linecap:round;stroke-linejoin:round"/><rect x="190.78" y="309.93" width="23.33" height="2.75" style="fill:#fff;stroke:#233239;stroke-linecap:round;stroke-linejoin:round"/><rect x="218.87" y="309.93" width="24.01" height="2.75" style="fill:#fff;stroke:#233239;stroke-linecap:round;stroke-linejoin:round"/><rect x="163.47" y="309.93" width="22.67" height="2.75" style="fill:#fff;stroke:#233239;stroke-linecap:round;stroke-linejoin:round"/><rect x="136.93" y="309.93" width="22.04" height="2.75" style="fill:#fff;stroke:#233239;stroke-linecap:round;stroke-linejoin:round"/><rect x="111.11" y="309.93" width="21.44" height="2.75" style="fill:#fff;stroke:#233239;stroke-linecap:round;stroke-linejoin:round"/><rect x="82.85" y="309.93" width="24.01" height="2.75" style="fill:#fff;stroke:#233239;stroke-linecap:round;stroke-linejoin:round"/><rect x="280.41" y="309.93" width="27.58" height="2.75" style="fill:#fff;stroke:#233239;stroke-linecap:round;stroke-linejoin:round"/><rect x="385.62" y="309.93" width="25.76" height="2.75" style="fill:#fff;stroke:#233239;stroke-linecap:round;stroke-linejoin:round"/><rect x="417.82" y="309.93" width="38.57" height="2.75" style="fill:#fff;stroke:#233239;stroke-linecap:round;stroke-linejoin:round"/><rect x="247.31" y="309.93" width="26.68" height="2.75" style="fill:#fff;stroke:#233239;stroke-linecap:round;stroke-linejoin:round"/><rect x="350.01" y="309.93" width="29.52" height="2.75" style="fill:#fff;stroke:#233239;stroke-linecap:round;stroke-linejoin:round"/><rect x="314.62" y="309.93" width="28.53" height="2.75" style="fill:#fff;stroke:#233239;stroke-linecap:round;stroke-linejoin:round"/><polygon points="457.84 383.07 74.95 379.22 74.95 372.22 457.84 372.22 457.84 383.07" style="fill:#233239;stroke:#233239;stroke-linecap:round;stroke-linejoin:round"/><polygon points="457.84 350.56 74.95 350.53 74.95 343.53 457.84 343.53 457.84 350.56" style="fill:#233239;stroke:#233239;stroke-linecap:round;stroke-linejoin:round"/><polygon points="198.5 402.15 74.95 400.57 74.95 408.62 198.5 411.11 198.5 402.15" style="fill:#233239;stroke:#233239;stroke-linecap:round;stroke-linejoin:round"/><polygon points="242.6 402.72 242.6 411.99 457.84 416.32 457.84 405.47 242.6 402.72" style="fill:#233239;stroke:#233239;stroke-linecap:round;stroke-linejoin:round"/><polygon points="250.3 431.84 250.3 440.5 454.52 446.77 456.79 446.07 456.79 437.67 250.3 431.84" style="fill:#233239;stroke:#233239;stroke-linecap:round;stroke-linejoin:round"/><path d="M190.47,430.15l-105.37-3V408.62H75l-.53.32c-.1,15.32-.1,25.48-.1,25.48l116.14,3.42Z" style="fill:#233239;stroke:#233239;stroke-linecap:round;stroke-linejoin:round"/><rect x="441.57" y="277.59" width="24.5" height="202.69" transform="translate(907.64 757.86) rotate(180)" style="fill:#233239;stroke:#233239;stroke-linecap:round;stroke-linejoin:round"/><rect x="447.12" y="282.32" width="13.88" height="87.08" style="fill:#969696;stroke:#233239;stroke-linecap:round;stroke-linejoin:round"/><rect x="447.12" y="376.02" width="13.88" height="87.08" style="fill:#969696;stroke:#233239;stroke-linecap:round;stroke-linejoin:round"/><rect x="488.21" y="277.59" width="24.5" height="202.69" transform="translate(1000.93 757.86) rotate(180)" style="fill:#233239;stroke:#233239;stroke-linecap:round;stroke-linejoin:round"/><rect x="493.76" y="282.32" width="13.88" height="87.08" style="fill:#969696;stroke:#233239;stroke-linecap:round;stroke-linejoin:round"/><rect x="493.76" y="376.02" width="13.88" height="87.08" style="fill:#969696;stroke:#233239;stroke-linecap:round;stroke-linejoin:round"/><rect x="229.08" y="288.66" width="36.26" height="50.9" rx="4.87" style="fill:#fff;stroke:#233239;stroke-linecap:round;stroke-linejoin:round"/><rect x="244.16" y="290.22" width="5.19" height="227.44" style="fill:#919191;stroke:#233239;stroke-linecap:round;stroke-linejoin:round"/><path d="M206.41,238.67c0,51.13-43.74,92.58-97.71,92.58S11,289.8,11,238.67s43.74-125.14,97.7-125.14S206.41,187.54,206.41,238.67Z" style="fill:#d9b162"/><polygon points="100.39 510.18 101.94 316.72 72.36 272.12 101.92 305.03 101.92 270.77 85.8 218.38 103.26 260.02 106.29 191.93 107.96 266.07 108.63 278.16 155.65 234.5 110.65 287.56 109.98 305.03 129.46 288.91 148.94 259.35 135.2 287.07 165.73 285.55 132.81 290.57 111.32 311.39 112.66 510.13 100.39 510.18" style="fill:#233239;stroke:#233239;stroke-linecap:round;stroke-linejoin:round"/></g></g></svg>