<svg xmlns="http://www.w3.org/2000/svg" viewBox="0 0 200 39.26"><title>back-bus</title><g id="Layer_2" data-name="Layer 2"><g id="Layer_1-2" data-name="Layer 1"><line y1="32.9" x2="4.5" y2="32.9" style="fill:none;stroke:#3d3d3d;stroke-miterlimit:10;stroke-width:2px"/><line x1="13.33" y1="32.9" x2="185.44" y2="32.9" style="fill:none;stroke:#3d3d3d;stroke-miterlimit:10;stroke-width:2px;stroke-dasharray:8.82612419128418,8.82612419128418"/><line x1="189.85" y1="32.9" x2="194.35" y2="32.9" style="fill:none;stroke:#3d3d3d;stroke-miterlimit:10;stroke-width:2px"/><polygon points="182.53 39.26 181.84 37.38 194.15 32.9 181.84 28.41 182.53 26.54 200 32.9 182.53 39.26" style="fill:#3d3d3d"/><path d="M96.09,0c6.22,0,12.45,0,18.68,0,3.13,0,5.13,1.39,6.59,4.18a24.94,24.94,0,0,1,2.86,13c-.15,3.76-1.38,4.22-4.13,4.06-.24,0-.48,0-.72,0-1.35-.11-2.44-.06-3.14,1.56a3.63,3.63,0,0,1-3.82,1.93A4.08,4.08,0,0,1,108.67,22a1.14,1.14,0,0,0-1.27-.85q-9.69,0-19.4,0a1.15,1.15,0,0,0-1.28.83,4.35,4.35,0,0,1-8,0,1,1,0,0,0-1.19-.79c-1,0-2.07,0-3.1,0A2.91,2.91,0,0,1,71.25,18q0-6.25,0-12.49A5.27,5.27,0,0,1,76.78,0C83.22,0,89.65,0,96.09,0Zm-9,19.36h21.24c.67-2.1,2-3.41,4.26-3.45s3.74,1.29,4.45,3.49c1.5,0,3,0,4.45,0,.63,0,.86-.34.86-.91,0-2.13,0-4.26,0-6.4,0-.52-.19-.72-.72-.75-4.26-.24-8.51-.66-12.77-.71-9.8-.1-19.61,0-29.42,0h-.93a1,1,0,0,1-1.11-1.16c0-1.34,0-2.69,0-4,0-1.77.09-1.87,1.85-1.87,10.84,0,21.68,0,32.52,0,2.09,0,4.17-.39,6.25-.59l0-.46a11.56,11.56,0,0,0-2.6-.62Q96,1.78,76.56,1.82A3.37,3.37,0,0,0,73,5.23c-.05,1,0,2.06,0,3.09v9.5c0,.73.07,1.5,1,1.55,1.46.08,2.93,0,4.36,0,.82-2.26,2.28-3.44,4.23-3.49S86.07,17,87.09,19.37Zm34.72-9.78c-.78-1.73-1.44-3.22-2.15-4.7a.77.77,0,0,0-.62-.34c-1.8.2-3.59.44-5.4.67v3.7ZM111.72,5.41H104V8.78h7.76ZM87.18,8.77h6.93V5.4H87.18Zm-7.94,0h6V5.38h-6ZM96,5.39V8.78h6V5.39Zm-10.68,15a2.61,2.61,0,1,0-2.65,2.58A2.57,2.57,0,0,0,85.32,20.34Zm27.37-2.65a2.62,2.62,0,1,0,2.6,2.63A2.58,2.58,0,0,0,112.69,17.69Z" style="fill:#3d3d3d"/></g></g></svg>