<svg xmlns="http://www.w3.org/2000/svg" viewBox="0 0 53 24.7"><title>bus</title><g id="Layer_2" data-name="Layer 2"><g id="Layer_1-2" data-name="Layer 1"><path d="M47.46,0A5.27,5.27,0,0,1,53,5.53Q53,11.77,53,18a2.91,2.91,0,0,1-3.13,3.18c-1,0-2.06,0-3.09,0a1,1,0,0,0-1.2.79,4.35,4.35,0,0,1-8,0,1.15,1.15,0,0,0-1.28-.83q-9.71,0-19.4,0a1.13,1.13,0,0,0-1.26.85,4.11,4.11,0,0,1-3.75,2.65A3.63,3.63,0,0,1,8,22.76c-.7-1.62-1.79-1.67-3.14-1.56-.24,0-.48,0-.72,0-2.75.16-4-.3-4.13-4.06a24.94,24.94,0,0,1,2.86-13C4.34,1.39,6.34,0,9.47,0,15.7,0,21.93,0,28.15,0,34.59,0,41,0,47.46,0ZM41.65,15.9c2,0,3.41,1.23,4.23,3.49,1.43,0,2.9.06,4.36,0,.91-.05,1-.82,1-1.55V8.32c0-1,0-2.06,0-3.09a3.37,3.37,0,0,0-3.52-3.41q-19.47,0-38.93,0a11.69,11.69,0,0,0-2.6.62l0,.46c2.08.2,4.16.58,6.25.59,10.84.06,21.68,0,32.52,0,1.76,0,1.85.1,1.85,1.87,0,1.34,0,2.69,0,4a1,1,0,0,1-1.11,1.16h-.93c-9.81,0-19.62-.07-29.42,0-4.26,0-8.51.47-12.77.71-.53,0-.72.23-.72.75,0,2.14,0,4.27,0,6.4,0,.57.23.91.86.91,1.47,0,3,0,4.45,0,.71-2.2,2.13-3.53,4.45-3.49s3.59,1.35,4.26,3.45H37.15C38.17,17,39.62,15.84,41.65,15.9Zm-31-7V5.22C8.79,5,7,4.75,5.2,4.55a.77.77,0,0,0-.62.34c-.7,1.48-1.37,3-2.15,4.7Zm1.92-.14h7.76V5.41H12.52ZM37.06,5.4H30.13V8.77h6.93Zm7.94,0H39v3.4h6Zm-22.78,0V8.78h6V5.39ZM41.57,22.92a2.62,2.62,0,1,0-2.65-2.58A2.57,2.57,0,0,0,41.57,22.92ZM9,20.32a2.62,2.62,0,1,0,2.6-2.63A2.58,2.58,0,0,0,9,20.32Z" style="fill:#3d3d3d"/></g></g></svg>