<svg xmlns="http://www.w3.org/2000/svg" viewBox="0 0 17.18 13.67"><defs><style>.cls-1{fill:#3d3d3d;}</style></defs><title>college</title><g id="Layer_2" data-name="Layer 2"><g id="Layer_1-2" data-name="Layer 1"><path class="cls-1" d="M14.69,4.5c-.4.14-.75.24-1.08.39a.43.43,0,0,0-.14.33c0,.89,0,1.79,0,2.68a1.12,1.12,0,0,1-.5,1,5.6,5.6,0,0,1-2.55,1A10.31,10.31,0,0,1,5,9.56a6.3,6.3,0,0,1-1.42-.87.92.92,0,0,1-.26-.61c0-1,0-1.92,0-2.89A.36.36,0,0,0,3,4.79c-.85-.3-1.68-.62-2.52-.92C.2,3.77,0,3.64,0,3.33s.21-.42.46-.51C3,1.89,5.58,1,8.14.05a.91.91,0,0,1,.61,0c2.57.91,5.13,1.84,7.69,2.77.25.09.45.22.45.51s-.21.44-.47.54c-.73.27-.73.27-.73,1,0,1.17,0,2.33,0,3.49a.73.73,0,0,0,.19.46c.33.37.69.7,1,1.05s.33.57,0,.92-.71.68-1,1.05a.83.83,0,0,0-.18.43c0,.28,0,.56,0,.84a.49.49,0,0,1-.5.51.5.5,0,0,1-.5-.51s0-.05,0-.07a1.7,1.7,0,0,0-.78-1.8,4.36,4.36,0,0,1-.43-.43c-.37-.38-.37-.59,0-1s.7-.69,1-1.05a.51.51,0,0,0,.17-.3C14.69,7.22,14.69,5.89,14.69,4.5ZM2,3.35,8.18,5.64a.64.64,0,0,0,.41,0l3.87-1.39,2.41-.87a1.26,1.26,0,0,0-.21-.09q-3-1.11-6-2.19a.7.7,0,0,0-.45,0L3.87,2.66Zm10.49,2-.41.13L8.71,6.65a1,1,0,0,1-.77,0c-.77-.3-1.54-.58-2.32-.87L4.31,5.3a.29.29,0,0,0,0,.09c0,.59,0,1.18,0,1.78,0,1,.05,1.08,1,1.44l.26.09A10.08,10.08,0,0,0,9.89,9a5.27,5.27,0,0,0,2.32-.8c.11-.08.24-.22.24-.33C12.47,7,12.46,6.2,12.46,5.31Zm2,5.07.71.69.72-.69-.68-.73Z"/></g></g></svg>