<svg  xmlns="http://www.w3.org/2000/svg" viewBox="0 0 14.35 14.34"><title>college-email</title><g id="Layer_2" data-name="Layer 2"><g id="Layer_1-2" data-name="Layer 1"><path d="M7.17,14.34h-6C.36,14.34,0,14,0,13.17Q0,9.65,0,6.11a.74.74,0,0,1,.33-.67c.48-.37,1-.75,1.42-1.15A.66.66,0,0,0,2,3.86C2,2.94,2,2,2,1.11A1,1,0,0,1,3.08,0h8.19a1,1,0,0,1,1.12,1.12c0,.91,0,1.82,0,2.73a.53.53,0,0,0,.22.46c.51.39,1,.81,1.5,1.2a.57.57,0,0,1,.24.5v7.27a1,1,0,0,1-1.07,1.06Zm0-4c1.49-1.07,3-2.11,4.42-3.17a.39.39,0,0,0,.14-.29c0-1.94,0-3.88,0-5.81,0-.33-.12-.44-.45-.44q-4.12,0-8.25,0c-.33,0-.44.11-.44.44V6.9a.41.41,0,0,0,.13.28Zm6,3.33L9.05,9.82,7.49,10.94a.45.45,0,0,1-.63,0c-.5-.38-1-.74-1.56-1.12L1.15,13.69ZM.67,13.24,4.76,9.43.67,6.51Zm13,0V6.51L9.6,9.44ZM12.42,5V6.61l1.07-.76ZM1.94,6.62V5L.87,5.85Z" /><path d="M7.07,6.87,5.88,6.56a.45.45,0,0,1-.34-.51c0-.29,0-.57,0-.86a.37.37,0,0,0-.29-.45,1.43,1.43,0,0,1-.44-.19c-.11-.08-.23-.21-.23-.31a.44.44,0,0,1,.23-.32C5.53,3.6,6.26,3.29,7,3a.58.58,0,0,1,.41,0c.7.29,1.41.58,2.1.9.12.06.28.23.27.34a.43.43,0,0,1-.28.33c-.61.13-.71.51-.68,1.07,0,.84,0,.9-.86,1.1A8.76,8.76,0,0,1,7.07,6.87ZM8.62,4.24,7.4,3.71c-.08,0-.17-.1-.23-.07-.46.18-.92.38-1.44.6L7,4.8a.37.37,0,0,0,.23,0C7.7,4.64,8.13,4.45,8.62,4.24ZM6.2,5.1c0,.28,0,.46,0,.63a.26.26,0,0,0,.27.34,4.58,4.58,0,0,0,.9.09c.79-.06.83-.13.78-.91,0,0,0,0,0-.11A1.44,1.44,0,0,1,6.2,5.1Z" /></g></g></svg>