<svg xmlns="http://www.w3.org/2000/svg" viewBox="0 0 18 17.99"><title>date</title><g id="Layer_2" data-name="Layer 2"><g id="Layer_1-2" data-name="Layer 1"><path d="M3.74,1.49c0-.33,0-.6,0-.87A.57.57,0,0,1,4.32,0c.32,0,.54.25.55.64v.83h8.26c0-.27,0-.53,0-.79,0-.42.2-.67.54-.68s.57.26.58.69c0,.25,0,.51,0,.8h1.47A2.09,2.09,0,0,1,18,3.76v12A2.08,2.08,0,0,1,15.75,18H2.26A2.07,2.07,0,0,1,0,15.75v-12A2.09,2.09,0,0,1,2.24,1.49ZM1.14,7.13c0,.13,0,.24,0,.34V15.8a1,1,0,0,0,1.09,1.07H15.78a1,1,0,0,0,1.09-1.11V7.47c0-.11,0-.22,0-.34Zm2.6-4.49c-.63,0-1.23,0-1.82,0a.88.88,0,0,0-.79.92c0,.56,0,1.13,0,1.69V6H16.87V5.61c0-.72,0-1.45,0-2.18a.83.83,0,0,0-.77-.78c-.59,0-1.19,0-1.83,0V3.7c0,.52-.2.8-.57.8s-.55-.27-.55-.78V2.65H4.87c0,.42,0,.81,0,1.21a.85.85,0,0,1-.25.53.54.54,0,0,1-.86-.48C3.73,3.49,3.74,3.08,3.74,2.64Z" /></g></g></svg>