<svg xmlns="http://www.w3.org/2000/svg" viewBox="0 0 200 39.25"><title>go-and-back-bus</title><g id="Layer_2" data-name="Layer 2"><g id="Layer_1-2" data-name="Layer 1"><line x1="194.35" y1="32.9" x2="189.85" y2="32.9" style="fill:none;stroke:#3d3d3d;stroke-miterlimit:10;stroke-width:2px"/><line x1="180.39" y1="32.9" x2="14.88" y2="32.9" style="fill:none;stroke:#3d3d3d;stroke-miterlimit:10;stroke-width:2px;stroke-dasharray:9.457747459411621,9.457747459411621"/><line x1="10.15" y1="32.9" x2="5.65" y2="32.9" style="fill:none;stroke:#3d3d3d;stroke-miterlimit:10;stroke-width:2px"/><polygon points="182.53 26.53 181.84 28.41 194.15 32.9 181.84 37.38 182.53 39.26 200 32.9 182.53 26.53" style="fill:#3d3d3d"/><polygon points="17.47 26.53 18.16 28.41 5.85 32.9 18.16 37.38 17.47 39.26 0 32.9 17.47 26.53" style="fill:#3d3d3d"/><path d="M123.22,0a5.27,5.27,0,0,1,5.53,5.51q0,6.24,0,12.49a2.91,2.91,0,0,1-3.13,3.18c-1,0-2.07,0-3.1,0a1,1,0,0,0-1.19.79,4.35,4.35,0,0,1-8,0,1.15,1.15,0,0,0-1.28-.83q-9.7,0-19.4,0a1.14,1.14,0,0,0-1.27.85,4.08,4.08,0,0,1-3.74,2.65,3.63,3.63,0,0,1-3.82-1.93c-.7-1.62-1.79-1.67-3.14-1.56-.24,0-.48,0-.72,0-2.75.16-4-.3-4.13-4.06a24.94,24.94,0,0,1,2.86-13C80.1,1.39,82.1,0,85.23,0c6.23,0,12.46,0,18.68,0C110.35,0,116.78,0,123.22,0ZM117.41,15.9c2,0,3.41,1.23,4.23,3.49,1.43,0,2.9.06,4.36,0,.91-.05,1-.82,1-1.55V8.32c0-1,0-2.06,0-3.09a3.37,3.37,0,0,0-3.52-3.41q-19.47,0-38.93,0a11.56,11.56,0,0,0-2.6.62l0,.46c2.08.2,4.16.58,6.25.59,10.84.06,21.68,0,32.52,0,1.76,0,1.85.1,1.85,1.87,0,1.34,0,2.69,0,4a1,1,0,0,1-1.11,1.16h-.93c-9.81,0-19.62-.07-29.42,0-4.26,0-8.51.47-12.77.71-.53,0-.72.23-.72.75,0,2.14,0,4.27,0,6.4,0,.57.23.91.86.91,1.47,0,2.95,0,4.45,0,.71-2.2,2.13-3.53,4.45-3.49s3.59,1.35,4.26,3.45h21.24C113.93,17,115.38,15.84,117.41,15.9Zm-31-7V5.22c-1.81-.23-3.6-.47-5.4-.67a.77.77,0,0,0-.62.34c-.71,1.48-1.37,3-2.15,4.7Zm1.92-.14H96V5.41H88.28ZM112.82,5.4h-6.93V8.77h6.93Zm7.94,0h-6v3.4h6ZM98,5.39V8.78h6V5.39Zm19.35,17.53a2.62,2.62,0,1,0-2.65-2.58A2.58,2.58,0,0,0,117.33,22.92Zm-32.62-2.6a2.62,2.62,0,1,0,2.6-2.63A2.58,2.58,0,0,0,84.71,20.32Z" style="fill:#3d3d3d"/></g></g></svg>