<svg xmlns="http://www.w3.org/2000/svg" viewBox="0 0 23 22.94"><title>home</title><g id="Layer_2" data-name="Layer 2"><g id="Layer_1-2" data-name="Layer 1"><path d="M2.47,13.6a7.34,7.34,0,0,1-.93-.14,2.11,2.11,0,0,1-1-3.39c.1-.12.2-.22.31-.33,3-3,6-6,9-9a2.37,2.37,0,0,1,3.44,0c3,3.07,6,6.07,9.07,9.1a2.1,2.1,0,0,1-.16,3.28,6.46,6.46,0,0,1-1.47.55l-.12-.11v6.72a2.47,2.47,0,0,1-2.63,2.65c-1.1,0-2.21,0-3.32,0-.66,0-.88-.24-.88-.91V17a1.17,1.17,0,0,0-1.31-1.33H10.6A1.15,1.15,0,0,0,9.3,17c0,1.67,0,3.33,0,5,0,.73-.21.94-.93,1H5.17a2.49,2.49,0,0,1-2.7-2.72c0-2,0-4.1,0-6.15Zm5.47,8V21c0-1.35,0-2.7,0-4a2.49,2.49,0,0,1,2.65-2.64h1.88a2.48,2.48,0,0,1,2.58,2.58c0,1.38,0,2.75,0,4.13v.52h2.71c1,0,1.42-.38,1.42-1.4V13.12c0-.71.22-.92.95-.92a3,3,0,0,0,.8,0,1,1,0,0,0,.61-.43,1.5,1.5,0,0,0-.07-.8c0-.11-.18-.2-.27-.29L12.28,1.73c-.61-.61-.94-.61-1.54,0L1.81,10.65c-.1.1-.24.18-.27.29a1.39,1.39,0,0,0-.09.79c.07.2.37.34.6.45a1.11,1.11,0,0,0,.45,0c1.24,0,1.32.07,1.32,1.32,0,2.27,0,4.55,0,6.83,0,.63.32,1.15.86,1.18C5.75,21.59,6.83,21.55,7.94,21.55Z" transform="translate(0 0)" /></g></g></svg>