<svg xmlns="http://www.w3.org/2000/svg" viewBox="0 0 16.2 23.07"><defs><style>.cls-1{fill:#545454;}</style></defs><title>location</title><g id="Layer_2" data-name="Layer 2"><g id="Layer_1-2" data-name="Layer 1"><path class="cls-1" d="M8.14,0A8.15,8.15,0,0,1,16,10.06a17.11,17.11,0,0,1-2.45,5.56C12,18,10.33,20.35,8.7,22.71a.65.65,0,0,1-1.15,0,89.41,89.41,0,0,1-5.76-8.68A15.17,15.17,0,0,1,.06,9,8.15,8.15,0,0,1,6.93.11Zm0,21.16.2-.25c.82-1.16,1.65-2.32,2.46-3.49a29.83,29.83,0,0,0,3.34-5.83,8.58,8.58,0,0,0,.69-4.39,6.74,6.74,0,0,0-13.42.91,10,10,0,0,0,1,4.15C3.87,15.47,6.07,18.22,8.1,21.16Z" transform="translate(0)"/><path class="cls-1" d="M4.06,8.12a4.05,4.05,0,1,1,4,4.05A4.06,4.06,0,0,1,4.06,8.12Zm6.75,0A2.7,2.7,0,1,0,8.1,10.82,2.71,2.71,0,0,0,10.81,8.14Z" transform="translate(0)"/></g></g></svg>