<svg xmlns="http://www.w3.org/2000/svg" viewBox="0 0 13.03 13.03"><defs><style>.cls-1{fill:#3d3d3d;}</style></defs><title>password-key</title><g id="Layer_2" data-name="Layer 2"><g id="Layer_1-2" data-name="Layer 1"><path class="cls-1" d="M5.62,9.24c0,.24,0,.45,0,.66a.39.39,0,0,1-.48.42l-.51-.06c0,.26-.06.5-.08.74a.4.4,0,0,1-.42.41l-.71.08a2.08,2.08,0,0,1,0,.25c0,.19.06.43,0,.56a4.57,4.57,0,0,1-.7.69.45.45,0,0,1-.24,0h-2c-.36,0-.48-.14-.49-.5,0-.63,0-1.25,0-1.88a.74.74,0,0,1,.24-.56L4.67,5.67a.36.36,0,0,0,.11-.41,4.2,4.2,0,1,1,3,3,.34.34,0,0,0-.41.12c-.19.2-.41.38-.59.59a.78.78,0,0,1-.68.28A3.66,3.66,0,0,0,5.62,9.24Zm-.76.27V8.94c0-.34.14-.51.47-.46a1.5,1.5,0,0,0,1.5-.66c0-.07.13-.12.19-.2a.61.61,0,0,1,.75-.17,3.41,3.41,0,0,0,4.45-3.73A3.26,3.26,0,0,0,9.89.94a3.24,3.24,0,0,0-3.49.85A3.26,3.26,0,0,0,5.6,5.3.58.58,0,0,1,5.44,6C4,7.41,2.57,8.85,1.13,10.27a1.07,1.07,0,0,0-.37.91,9.71,9.71,0,0,1,0,1.08H2.16a.44.44,0,0,0,.49-.55c0-.13,0-.25,0-.38,0-.41.07-.56.49-.59l.7-.07c0-.14,0-.27.05-.39s0-.27,0-.41c0-.31.17-.43.49-.41Z"/><path class="cls-1" d="M11.05,3.13A1.14,1.14,0,0,1,9.92,4.26,1.16,1.16,0,0,1,8.77,3.11,1.14,1.14,0,0,1,9.93,2,1.12,1.12,0,0,1,11.05,3.13Zm-.76,0a.37.37,0,0,0-.37-.37.39.39,0,0,0-.39.38.41.41,0,0,0,.38.38A.38.38,0,0,0,10.29,3.11Z"/></g></g></svg>