<svg xmlns="http://www.w3.org/2000/svg" viewBox="0 0 14.71 14.76"><defs><style>.cls-1{fill:#3d3d3d;}</style></defs><title>phone</title><g id="Layer_2" data-name="Layer 2"><g id="Layer_1-2" data-name="Layer 1"><path class="cls-1" d="M11.24,14.76a7.42,7.42,0,0,1-3.05-.87A15.81,15.81,0,0,1,.94,6.73,7.63,7.63,0,0,1,0,3.67,2.55,2.55,0,0,1,.84,1.5c.32-.31.62-.63.93-.94A1.49,1.49,0,0,1,4.1.56Q5,1.4,5.81,2.27a1.46,1.46,0,0,1,0,2.31A10.45,10.45,0,0,1,5,5.39a.33.33,0,0,0-.07.51c.46.62.88,1.28,1.39,1.86A9,9,0,0,0,8.86,9.83a.3.3,0,0,0,.44-.06c.33-.35.67-.69,1-1a1.37,1.37,0,0,1,2,0c.65.63,1.3,1.28,1.93,1.94a1.43,1.43,0,0,1,0,2.09c-.4.45-.83.88-1.27,1.3A2.42,2.42,0,0,1,11.24,14.76ZM.75,3.46a6.28,6.28,0,0,0,.64,2.45,15,15,0,0,0,6.49,7,8.5,8.5,0,0,0,3,1.1,1.92,1.92,0,0,0,1.75-.51c.33-.35.67-.69,1-1a.77.77,0,0,0,0-1.27L11.88,9.45a.72.72,0,0,0-1.19,0L9.63,10.5a.61.61,0,0,1-.88.12A14.26,14.26,0,0,1,7,9.43,10,10,0,0,1,4.1,5.94.65.65,0,0,1,4.27,5c.35-.34.7-.68,1-1a.71.71,0,0,0,0-1.17q-.88-.9-1.77-1.77a.73.73,0,0,0-1.2,0c-.34.33-.66.67-1,1A1.71,1.71,0,0,0,.75,3.46Z"/></g></g></svg>