<svg xmlns="http://www.w3.org/2000/svg" viewBox="0 0 21.42 21.45"><defs></defs><title>sign-in&amp;amp;sign-out</title><g id="Layer_2" data-name="Layer 2"><g id="Layer_1-2" data-name="Layer 1"><path class="cls-1" d="M0,10.71c0-2.4,0-4.8,0-7.2A3.33,3.33,0,0,1,2.88,0a3.6,3.6,0,0,1,.66,0h8a3.36,3.36,0,0,1,3.54,3.55c0,.47,0,1,0,1.42a.84.84,0,1,1-1.67,0c0-.51,0-1,0-1.55a1.68,1.68,0,0,0-1.74-1.75q-4.14,0-8.29,0A1.65,1.65,0,0,0,1.69,3.3c0,.14,0,.28,0,.42v14a3.42,3.42,0,0,0,.07.79,1.64,1.64,0,0,0,1.61,1.23h8.41a1.64,1.64,0,0,0,1.67-1.68c0-.52,0-1,0-1.55a.84.84,0,1,1,1.67,0A16.21,16.21,0,0,1,15,18.74a3.26,3.26,0,0,1-3.18,2.7q-4.3,0-8.59,0A3.31,3.31,0,0,1,0,18.37c0-.22,0-.44,0-.67Z"/><path class="cls-1" d="M10.67,9.93h9.71c.66,0,1,.3,1,.83s-.37.84-1,.84H10.66l0,.11,1.12,1.1a.87.87,0,0,1,.13,1.29c-.36.38-.87.34-1.32-.11s-1.11-1.14-1.69-1.68a2.19,2.19,0,0,1,0-3.08c.6-.56,1.16-1.16,1.75-1.74a.85.85,0,0,1,1.26-.07.84.84,0,0,1-.08,1.25c-.38.39-.79.75-1.18,1.12Z"/></g></g></svg>