<svg xmlns="http://www.w3.org/2000/svg" viewBox="0 0 21.04 21.09"><defs><style>.cls-1{fill:#545454;}</style></defs><title>station</title><g id="Layer_2" data-name="Layer 2"><g id="Layer_1-2" data-name="Layer 1"><path class="cls-1" d="M14.46,17.3c0-.55,0-1.11,0-1.67s.22-.75.74-.75h2.13V12.8c0-.51.23-.8.62-.8s.61.29.61.8c0,1.5,0,3,0,4.51h1.21V3.7H1c-.81,0-1-.15-1-1a6.19,6.19,0,0,1,0-.86A2.25,2.25,0,0,1,2.29,0H18.55A2.28,2.28,0,0,1,21,2.47v17.7c0,.69-.19.87-.88.87H14.49c-.66,0-.85-.2-.85-.86V18.25C13.64,17.56,13.77,17.41,14.46,17.3ZM1.25,2.44H19.79a1,1,0,0,0-1.09-1.2q-8.17,0-16.35,0A1,1,0,0,0,1.25,2.44ZM19.79,18.61H14.9v1.17h4.89Zm-2.47-2.48H15.73v1.18h1.59Z"/><path class="cls-1" d="M4.52,18.6c0,.36,0,.68,0,1A1.43,1.43,0,0,1,3.12,21c-.31,0-.61,0-.91,0a1.42,1.42,0,0,1-1.38-1.4,2.81,2.81,0,0,1,0-.41,1.15,1.15,0,0,0-.42-1.14A1.3,1.3,0,0,1,0,17.14C0,14,0,10.82,0,7.66a1.81,1.81,0,0,1,1.8-1.82h9.12a1.8,1.8,0,0,1,1.8,1.81c0,3.16,0,6.32,0,9.48a1.52,1.52,0,0,1-.58,1.17.81.81,0,0,0-.23.46,6.13,6.13,0,0,1,0,.86,2.55,2.55,0,0,1-.48,1,2.31,2.31,0,0,1-2.73,0,2.26,2.26,0,0,1-.45-1,4.31,4.31,0,0,1,0-1ZM1.24,13.66c0,1.14,0,2.24,0,3.33,0,.27.12.35.38.35h9.52c.32,0,.38-.14.38-.42,0-1,0-2,0-3a2.3,2.3,0,0,0,0-.26Zm0-4.1v2.82H11.47V9.56ZM11.49,8.29c.07-1.08-.06-1.22-1.09-1.22H2c-.56,0-.78.22-.78.76v.46ZM2.06,18.59a8.63,8.63,0,0,0,0,.89c0,.11.11.29.18.3a3.53,3.53,0,0,0,.86,0c.06,0,.16-.14.17-.22,0-.32,0-.64,0-1Zm7.41,0c-.07,1.27-.07,1.27.88,1.21h.08c.08-.08.23-.16.24-.25,0-.32,0-.64,0-1Z"/><path class="cls-1" d="M6.34,16.11c-.25,0-.49,0-.74,0a.63.63,0,0,1-.66-.63.61.61,0,0,1,.64-.6q.78,0,1.56,0a.62.62,0,0,1,.67.62.63.63,0,0,1-.65.61C6.89,16.12,6.61,16.11,6.34,16.11Z"/><path class="cls-1" d="M3.7,15.49a.62.62,0,1,1-1.23,0,.62.62,0,0,1,.63-.61A.62.62,0,0,1,3.7,15.49Z"/><path class="cls-1" d="M10.27,15.51a.61.61,0,0,1-.65.59.61.61,0,1,1,.65-.59Z"/></g></g></svg>