<svg xmlns="http://www.w3.org/2000/svg" viewBox="0 0 32.18 32.19"><defs><style>.cls-1{fill:#fff;}</style></defs><title>ticket</title><g id="Layer_2" data-name="Layer 2"><g id="Layer_1-2" data-name="Layer 1"><path class="cls-1" d="M0,12,3.78,8.2A14,14,0,0,0,6.14,9.44a2.29,2.29,0,0,0,2.47-.78,4.2,4.2,0,0,0,.85-1.84C9.68,5.56,8.87,4.69,8,3.92L12,0,32.18,20.21,28.39,24A13.26,13.26,0,0,0,26,22.75a2.29,2.29,0,0,0-2.47.78,4.23,4.23,0,0,0-.86,1.83c-.22,1.26.6,2.13,1.43,2.9l-3.93,3.93Zm29.5,8.31L12,2.73,10.71,4.05a4.74,4.74,0,0,1-.79,6c-1.54,1.55-3.5,1.7-5.92.61L2.7,12,20.24,29.52l1.27-1.3c-1.15-2.53-.89-4.57.76-6.14a4.86,4.86,0,0,1,5.95-.54Z"/><path class="cls-1" d="M16.12,11.92l1.2-1.31L16.07,9.45l-1.24,1.22Z"/><path class="cls-1" d="M9.4,16.08l1.25,1.26,1.29-1.28-1.31-1.27Z"/><path class="cls-1" d="M14.63,13.3l-1.2-1.18-1.3,1.34,1.23,1.22Z"/></g></g></svg>