<svg xmlns="http://www.w3.org/2000/svg" viewBox="0 0 27.35 21.36"><title>tickets</title><g id="Layer_2" data-name="Layer 2"><g id="Layer_1-2" data-name="Layer 1"><path d="M19.78,14.65A2.92,2.92,0,0,0,19,15.74l1.7-1.69A3,3,0,0,0,19.78,14.65Z" /><path d="M15.77,7.83,14.93,7c-.79-.78-1.57-1.56-2.35-2.35S11.15,3.21,10.44,2.5,8.77.83,7.94,0L5.33,2.6a2.16,2.16,0,0,1,1,1.93,2.91,2.91,0,0,1-.57,1.22,1.54,1.54,0,0,1-1.64.52,9.38,9.38,0,0,1-1.56-.83C1.71,6.24.84,7.1,0,8L13.41,21.36l2.5-2.5.1-.1a2.13,2.13,0,0,1-.94-1.93,2,2,0,0,1,.14-.46,2.58,2.58,0,0,1,.43-.76,1.5,1.5,0,0,1,1.63-.51,9,9,0,0,1,1.57.82l.18-.18a2.92,2.92,0,0,1,.76-1.09,3,3,0,0,1,.94-.6,0,0,0,0,1,0,0l.62-.63Zm3,6.47a3.22,3.22,0,0,0-4,.35,3.48,3.48,0,0,0-.58.71,2.78,2.78,0,0,0-.4,1.39,4.59,4.59,0,0,0,.47,2l-.84.86L1.79,8l.86-.85a3.71,3.71,0,0,0,2.92.28,3,3,0,0,0,1-.69,3.48,3.48,0,0,0,.75-1.07A3.2,3.2,0,0,0,7.1,2.69l.83-.88L11.13,5l1,1,7.45,7.46Z" /><path d="M7.92,10.66l-.11.1-.75.75-.82-.84L7,9.91l.09-.1Z" /><path d="M9.71,8.83,8.91,8l-.86.9.81.8Z" /><path d="M13.94,0c-.81.8-1.65,1.64-2.5,2.5.71.71,1.42,1.43,2.14,2.14a3.68,3.68,0,0,0-.48-1.95l.83-.88L25.57,13.46l-.84.84a3.24,3.24,0,0,0-3-.26,0,0,0,0,0,0,0,3,3,0,0,0-.94.6A2.92,2.92,0,0,0,20,15.74a3.69,3.69,0,0,0,.25,3l-.84.86-3.22-3.22-.86.63s3.23,3.53,4.06,4.36l2.6-2.6a2.13,2.13,0,0,1-.94-1.93,2.8,2.8,0,0,1,.57-1.22,1.5,1.5,0,0,1,1.63-.51,9,9,0,0,1,1.57.82c.8-.79,1.67-1.66,2.51-2.51C22.89,9,18.4,4.47,13.94,0Z" /><path d="M12.49,7l-.79.87-.45-.43-.41-.4.82-.81.69.64Z" /><path d="M17.49,7l-.72.79L15.93,7l.73-.72Z" /></g></g></svg>