<svg xmlns="http://www.w3.org/2000/svg" viewBox="0 0 19.09 19.09"><defs><style>.cls-1{fill:#545454;}</style></defs><title>time</title><g id="Layer_2" data-name="Layer 2"><g id="Layer_1-2" data-name="Layer 1"><path class="cls-1" d="M0,9.54a9.55,9.55,0,1,1,9.54,9.55A9.53,9.53,0,0,1,0,9.54Zm17.36,0A7.82,7.82,0,1,0,9.5,17.36,7.82,7.82,0,0,0,17.36,9.54Z"/><path class="cls-1" d="M8.67,6.92c0-.81,0-1.62,0-2.44a.88.88,0,1,1,1.75,0c0,1.43,0,2.85,0,4.27a1,1,0,0,0,.33.78c.65.62,1.28,1.26,1.91,1.9a.9.9,0,0,1,.11,1.33.89.89,0,0,1-1.33-.09L9,10.27a1.14,1.14,0,0,1-.37-.9Z"/></g></g></svg>