<svg xmlns="http://www.w3.org/2000/svg" viewBox="0 0 25.24 23.07"><title>users</title><g id="Layer_2" data-name="Layer 2"><g id="Layer_1-2" data-name="Layer 1"><path d="M14.46,23.07h0Zm9.65-9.49a4.22,4.22,0,0,0-2.62-2.25,2.46,2.46,0,0,0-2.46.34,4.89,4.89,0,0,1-.72.46l-.21.11A4.21,4.21,0,0,1,19,13.32L19.5,13a2,2,0,0,1,2.79.36,4.82,4.82,0,0,1,1.24,2.55,21.08,21.08,0,0,1,.34,3.26,2.37,2.37,0,0,1-2.57,2.56H19.39a4,4,0,0,1-3,1.34c1.67,0,3.33,0,5,0a3.66,3.66,0,0,0,3.79-3.17A11.18,11.18,0,0,0,24.11,13.58Z" /><path d="M15.47,0A5.51,5.51,0,0,0,13,.59a5.33,5.33,0,0,1,1.32.93,4.3,4.3,0,0,1,1.2-.17,4.2,4.2,0,1,1,0,8.4,4.07,4.07,0,0,1-1.16-.17,5.08,5.08,0,0,1-1.32.93A5.55,5.55,0,1,0,15.47,0Z" /><path d="M18.11,13.58c-.05-.09-.09-.18-.14-.26a4.21,4.21,0,0,0-.87-1.08,4,4,0,0,0-1.61-.91,2.46,2.46,0,0,0-2.46.34,4.89,4.89,0,0,1-.72.46l-.12.06a5.59,5.59,0,0,1-1.68.64,4.2,4.2,0,0,1-1.83,0,3.75,3.75,0,0,1-.52-.15,7.28,7.28,0,0,1-1-.46c-.41-.23-.82-.48-1.25-.68a2.58,2.58,0,0,0-1.13-.33,4.05,4.05,0,0,0-3.65,2.36A11.05,11.05,0,0,0,0,19.62a3.44,3.44,0,0,0,2.58,3.23,5.74,5.74,0,0,0,1.55.21c1.82,0,3.63,0,5.45,0h5.76a4,4,0,0,0,3-1.34,3.37,3.37,0,0,0,.78-1.83A11.18,11.18,0,0,0,18.11,13.58ZM15.3,21.71H4.23a4.8,4.8,0,0,1-.85-.07,2.19,2.19,0,0,1-2-2.06,9.9,9.9,0,0,1,.94-5.38,2.93,2.93,0,0,1,2-1.64,1.2,1.2,0,0,1,1,.18,8.6,8.6,0,0,0,.9.58,6.87,6.87,0,0,0,1.23.57,5.56,5.56,0,0,0,.91.25,6.4,6.4,0,0,0,3.68-.4h0c.26-.11.52-.24.78-.38s.41-.25.61-.38l.27-.16a1.91,1.91,0,0,1,1.84,0,2.68,2.68,0,0,1,.68.53,4.51,4.51,0,0,1,.44.54,4.89,4.89,0,0,1,.8,2,21.08,21.08,0,0,1,.34,3.26A2.37,2.37,0,0,1,15.3,21.71Z" /><path d="M13.29,1.52A5.33,5.33,0,0,0,12,.59a5.56,5.56,0,0,0-8,5A5.52,5.52,0,0,0,9.46,11.1,5.6,5.6,0,0,0,12,10.51a5.08,5.08,0,0,0,1.32-.93,5.55,5.55,0,0,0,0-8.06ZM12,8.93a3.75,3.75,0,0,1-1.33.65,4.18,4.18,0,0,1-5.36-4A4.17,4.17,0,0,1,9.49,1.35a4.07,4.07,0,0,1,1.16.17A4,4,0,0,1,12,2.17a4.2,4.2,0,0,1,0,6.76Z" /></g></g></svg>