<svg xmlns="http://www.w3.org/2000/svg" viewBox="0 0 12.54 15.05"><title>user</title><g id="Layer_2" data-name="Layer 2"><g id="Layer_1-2" data-name="Layer 1"><path d="M6.27,15c-1.18,0-2.37,0-3.55,0a3.79,3.79,0,0,1-1-.14A2.25,2.25,0,0,1,0,12.79a7.24,7.24,0,0,1,.73-4A2.66,2.66,0,0,1,3.13,7.29a1.67,1.67,0,0,1,.74.22c.49.23,1,.56,1.45.74A3.17,3.17,0,0,0,8,7.91a3.38,3.38,0,0,0,.47-.3,1.59,1.59,0,0,1,1.6-.22,2.75,2.75,0,0,1,1.71,1.47A7.3,7.3,0,0,1,12.5,13,2.39,2.39,0,0,1,10,15c-1.25,0-2.5,0-3.76,0Zm0-.88h0c1.23,0,2.47,0,3.7,0a1.54,1.54,0,0,0,1.67-1.66,13.86,13.86,0,0,0-.22-2.13,3.13,3.13,0,0,0-.81-1.66A1.31,1.31,0,0,0,8.8,8.47c-.13.08-.26.17-.4.24a4.17,4.17,0,0,1-2.91.51,4.9,4.9,0,0,1-2-.91.8.8,0,0,0-.67-.12A1.91,1.91,0,0,0,1.52,9.26a6.45,6.45,0,0,0-.61,3.51A1.41,1.41,0,0,0,2.2,14.11a2.65,2.65,0,0,0,.56.05Z" /><path d="M2.56,3.62A3.62,3.62,0,1,1,6.17,7.24,3.59,3.59,0,0,1,2.56,3.62ZM6.17,6.36A2.74,2.74,0,1,0,3.44,3.61,2.73,2.73,0,0,0,6.17,6.36Z" /></g></g></svg>