<svg xmlns="http://www.w3.org/2000/svg" viewBox="0 0 15.89 15.87"><defs><style>.cls-1,.cls-2{fill:#3d3d3d;stroke:#fff;stroke-miterlimit:10;}.cls-1{stroke-width:0.25px;}.cls-2{stroke-width:0.5px;}</style></defs><title>whatsapp</title><g id="Layer_2" data-name="Layer 2"><g id="Layer_1-2" data-name="Layer 1"><path class="cls-1" d="M.18,15.69c.34-1.25.67-2.45,1-3.64a.84.84,0,0,0-.07-.66A7.68,7.68,0,0,1,6.74.24,7.36,7.36,0,0,1,13.07,2a7.4,7.4,0,0,1,2.47,7.57,7.43,7.43,0,0,1-5.45,5.68,7.36,7.36,0,0,1-5.52-.5A.78.78,0,0,0,4,14.7Zm1.87-1.86,2.13-.56a.64.64,0,0,1,.54.07,6.36,6.36,0,0,0,4.09.84,6.42,6.42,0,1,0-6.28-3,.66.66,0,0,1,.09.59C2.42,12.44,2.25,13.11,2.05,13.83Z"/><path class="cls-2" d="M9.8,11.51a6,6,0,0,1-2.49-1A8.83,8.83,0,0,1,4.42,7.38a2.29,2.29,0,0,1,.24-2.82A1.12,1.12,0,0,1,5.8,4.29a.59.59,0,0,1,.25.29c.21.47.41,1,.59,1.43a.64.64,0,0,1,0,.45A1.55,1.55,0,0,1,6.24,7a.44.44,0,0,0,0,.64A5.41,5.41,0,0,0,8.65,9.7a.44.44,0,0,0,.63-.16c.13-.18.29-.33.41-.52a.41.41,0,0,1,.6-.16l1,.45a.91.91,0,0,0,.22.11c.51.1.5.25.43.71C11.77,11,11,11.51,9.8,11.51Z"/></g></g></svg>